<mxfile host="app.diagrams.net" modified="2023-02-23T08:37:19.750Z" agent="5.0 (Windows NT 10.0; Win64; x64) AppleWebKit/537.36 (KHTML, like Gecko) Chrome/93.0.4577.63 Safari/537.36 Edg/93.0.961.47" etag="bzZfIbV9iaH1jozEW3Fc" version="20.8.23" type="github">
  <diagram name="Page-1" id="c4acf3e9-155e-7222-9cf6-157b1a14988f">
    <mxGraphModel dx="2990" dy="2780" grid="1" gridSize="10" guides="1" tooltips="1" connect="1" arrows="1" fold="1" page="1" pageScale="1" pageWidth="850" pageHeight="1100" background="none" math="0" shadow="0">
      <root>
        <mxCell id="0" />
        <mxCell id="1" parent="0" />
        <mxCell id="ykWLb0IThOWZlfe0dgKn-5" value="decorativeFeature" style="swimlane;fontStyle=1;align=center;verticalAlign=top;childLayout=stackLayout;horizontal=1;startSize=26;horizontalStack=0;resizeParent=1;resizeParentMax=0;resizeLast=0;collapsible=1;marginBottom=0;" parent="1" vertex="1">
          <mxGeometry x="-120" y="-770" width="650" height="540" as="geometry" />
        </mxCell>
        <mxCell id="ykWLb0IThOWZlfe0dgKn-6" value="#LastF: Nfeature*" style="text;strokeColor=none;fillColor=none;align=left;verticalAlign=top;spacingLeft=4;spacingRight=4;overflow=hidden;rotatable=0;points=[[0,0.5],[1,0.5]];portConstraint=eastwest;" parent="ykWLb0IThOWZlfe0dgKn-5" vertex="1">
          <mxGeometry y="26" width="650" height="26" as="geometry" />
        </mxCell>
        <mxCell id="ykWLb0IThOWZlfe0dgKn-300" value="#SSMap: ElementName" style="text;strokeColor=none;fillColor=none;align=left;verticalAlign=top;spacingLeft=4;spacingRight=4;overflow=hidden;rotatable=0;points=[[0,0.5],[1,0.5]];portConstraint=eastwest;" parent="ykWLb0IThOWZlfe0dgKn-5" vertex="1">
          <mxGeometry y="52" width="650" height="26" as="geometry" />
        </mxCell>
        <mxCell id="ykWLb0IThOWZlfe0dgKn-302" value="#faces: TopTools_IndexedMapOfShape" style="text;strokeColor=none;fillColor=none;align=left;verticalAlign=top;spacingLeft=4;spacingRight=4;overflow=hidden;rotatable=0;points=[[0,0.5],[1,0.5]];portConstraint=eastwest;" parent="ykWLb0IThOWZlfe0dgKn-5" vertex="1">
          <mxGeometry y="78" width="650" height="26" as="geometry" />
        </mxCell>
        <mxCell id="ykWLb0IThOWZlfe0dgKn-301" value="#edges: TopTools_IndexedMapOfShape" style="text;strokeColor=none;fillColor=none;align=left;verticalAlign=top;spacingLeft=4;spacingRight=4;overflow=hidden;rotatable=0;points=[[0,0.5],[1,0.5]];portConstraint=eastwest;" parent="ykWLb0IThOWZlfe0dgKn-5" vertex="1">
          <mxGeometry y="104" width="650" height="26" as="geometry" />
        </mxCell>
        <mxCell id="ykWLb0IThOWZlfe0dgKn-299" value="#vertexs: TopTools_IndexedMapOfShape" style="text;strokeColor=none;fillColor=none;align=left;verticalAlign=top;spacingLeft=4;spacingRight=4;overflow=hidden;rotatable=0;points=[[0,0.5],[1,0.5]];portConstraint=eastwest;" parent="ykWLb0IThOWZlfe0dgKn-5" vertex="1">
          <mxGeometry y="130" width="650" height="26" as="geometry" />
        </mxCell>
        <mxCell id="ykWLb0IThOWZlfe0dgKn-7" value="" style="line;strokeWidth=1;fillColor=none;align=left;verticalAlign=middle;spacingTop=-1;spacingLeft=3;spacingRight=3;rotatable=0;labelPosition=right;points=[];portConstraint=eastwest;strokeColor=inherit;" parent="ykWLb0IThOWZlfe0dgKn-5" vertex="1">
          <mxGeometry y="156" width="650" height="8" as="geometry" />
        </mxCell>
        <mxCell id="ykWLb0IThOWZlfe0dgKn-306" value="+NdecorativeFeature(mybigtype:featureBigType, mytype:NfeatureType,mylabel:const TDF_Label&amp;,r:double,&#xa; refernames:std::vector&lt;std::string&gt;&amp;)" style="text;strokeColor=none;fillColor=none;align=left;verticalAlign=top;spacingLeft=4;spacingRight=4;overflow=hidden;rotatable=0;points=[[0,0.5],[1,0.5]];portConstraint=eastwest;" parent="ykWLb0IThOWZlfe0dgKn-5" vertex="1">
          <mxGeometry y="164" width="650" height="46" as="geometry" />
        </mxCell>
        <mxCell id="ykWLb0IThOWZlfe0dgKn-307" value="+NdecorativeFeature(mybigtype:featureBigType, mytype:NfeatureType, mylabel:const TDF_Label&amp; )" style="text;strokeColor=none;fillColor=none;align=left;verticalAlign=top;spacingLeft=4;spacingRight=4;overflow=hidden;rotatable=0;points=[[0,0.5],[1,0.5]];portConstraint=eastwest;" parent="ykWLb0IThOWZlfe0dgKn-5" vertex="1">
          <mxGeometry y="210" width="650" height="26" as="geometry" />
        </mxCell>
        <mxCell id="ykWLb0IThOWZlfe0dgKn-312" value="+GetMyBody()const:TopoDS_Shape " style="text;strokeColor=none;fillColor=none;align=left;verticalAlign=top;spacingLeft=4;spacingRight=4;overflow=hidden;rotatable=0;points=[[0,0.5],[1,0.5]];portConstraint=eastwest;" parent="ykWLb0IThOWZlfe0dgKn-5" vertex="1">
          <mxGeometry y="236" width="650" height="26" as="geometry" />
        </mxCell>
        <mxCell id="ykWLb0IThOWZlfe0dgKn-311" value="+GetNameByShape(TopoDS_Shape shape)const:std::string &#xa;" style="text;strokeColor=none;fillColor=none;align=left;verticalAlign=top;spacingLeft=4;spacingRight=4;overflow=hidden;rotatable=0;points=[[0,0.5],[1,0.5]];portConstraint=eastwest;" parent="ykWLb0IThOWZlfe0dgKn-5" vertex="1">
          <mxGeometry y="262" width="650" height="26" as="geometry" />
        </mxCell>
        <mxCell id="ykWLb0IThOWZlfe0dgKn-309" value="+GetNameByShape(shapes:const std::vector&lt;TopoDS_Shape&gt;&amp;, IsSave:bool)const:std::vector&lt;std::string&gt;" style="text;strokeColor=none;fillColor=none;align=left;verticalAlign=top;spacingLeft=4;spacingRight=4;overflow=hidden;rotatable=0;points=[[0,0.5],[1,0.5]];portConstraint=eastwest;" parent="ykWLb0IThOWZlfe0dgKn-5" vertex="1">
          <mxGeometry y="288" width="650" height="26" as="geometry" />
        </mxCell>
        <mxCell id="ykWLb0IThOWZlfe0dgKn-310" value="+GetReferName()const:std::vector&lt;std::string&gt; " style="text;strokeColor=none;fillColor=none;align=left;verticalAlign=top;spacingLeft=4;spacingRight=4;overflow=hidden;rotatable=0;points=[[0,0.5],[1,0.5]];portConstraint=eastwest;" parent="ykWLb0IThOWZlfe0dgKn-5" vertex="1">
          <mxGeometry y="314" width="650" height="26" as="geometry" />
        </mxCell>
        <mxCell id="ykWLb0IThOWZlfe0dgKn-308" value="+GetR()const:double &#xa;" style="text;strokeColor=none;fillColor=none;align=left;verticalAlign=top;spacingLeft=4;spacingRight=4;overflow=hidden;rotatable=0;points=[[0,0.5],[1,0.5]];portConstraint=eastwest;" parent="ykWLb0IThOWZlfe0dgKn-5" vertex="1">
          <mxGeometry y="340" width="650" height="26" as="geometry" />
        </mxCell>
        <mxCell id="ykWLb0IThOWZlfe0dgKn-303" value=" +GetLastF()const:Nfeature*" style="text;strokeColor=none;fillColor=none;align=left;verticalAlign=top;spacingLeft=4;spacingRight=4;overflow=hidden;rotatable=0;points=[[0,0.5],[1,0.5]];portConstraint=eastwest;" parent="ykWLb0IThOWZlfe0dgKn-5" vertex="1">
          <mxGeometry y="366" width="650" height="26" as="geometry" />
        </mxCell>
        <mxCell id="ykWLb0IThOWZlfe0dgKn-305" value="+SetLastF(Nfeature* LastF):void " style="text;strokeColor=none;fillColor=none;align=left;verticalAlign=top;spacingLeft=4;spacingRight=4;overflow=hidden;rotatable=0;points=[[0,0.5],[1,0.5]];portConstraint=eastwest;" parent="ykWLb0IThOWZlfe0dgKn-5" vertex="1">
          <mxGeometry y="392" width="650" height="26" as="geometry" />
        </mxCell>
        <mxCell id="ykWLb0IThOWZlfe0dgKn-304" value="+SetReferName(const std::vector&lt;std::string&gt;&amp; refernames):void " style="text;strokeColor=none;fillColor=none;align=left;verticalAlign=top;spacingLeft=4;spacingRight=4;overflow=hidden;rotatable=0;points=[[0,0.5],[1,0.5]];portConstraint=eastwest;" parent="ykWLb0IThOWZlfe0dgKn-5" vertex="1">
          <mxGeometry y="418" width="650" height="26" as="geometry" />
        </mxCell>
        <mxCell id="4OkeyMGWRKXnlzKa9JUR-2" value="+SetR(double r):void " style="text;strokeColor=none;fillColor=none;align=left;verticalAlign=top;spacingLeft=4;spacingRight=4;overflow=hidden;rotatable=0;points=[[0,0.5],[1,0.5]];portConstraint=eastwest;" parent="ykWLb0IThOWZlfe0dgKn-5" vertex="1">
          <mxGeometry y="444" width="650" height="26" as="geometry" />
        </mxCell>
        <mxCell id="4OkeyMGWRKXnlzKa9JUR-3" value="+ResetMaps(const TopoDS_Shape&amp; NewBody):void " style="text;strokeColor=none;fillColor=none;align=left;verticalAlign=top;spacingLeft=4;spacingRight=4;overflow=hidden;rotatable=0;points=[[0,0.5],[1,0.5]];portConstraint=eastwest;" parent="ykWLb0IThOWZlfe0dgKn-5" vertex="1">
          <mxGeometry y="470" width="650" height="26" as="geometry" />
        </mxCell>
        <mxCell id="ykWLb0IThOWZlfe0dgKn-8" value="+SetMap(SSMap: ElementName, faces: TopTools_IndexedMapOfShape&amp;, edges: TopTools_IndexedMapOfShape&amp;, &#xa;vertexs: TopTools_IndexedMapOfShape&amp;)" style="text;strokeColor=none;fillColor=none;align=left;verticalAlign=top;spacingLeft=4;spacingRight=4;overflow=hidden;rotatable=0;points=[[0,0.5],[1,0.5]];portConstraint=eastwest;" parent="ykWLb0IThOWZlfe0dgKn-5" vertex="1">
          <mxGeometry y="496" width="650" height="44" as="geometry" />
        </mxCell>
        <mxCell id="ykWLb0IThOWZlfe0dgKn-13" value="NtrsfFeature" style="swimlane;fontStyle=1;align=center;verticalAlign=top;childLayout=stackLayout;horizontal=1;startSize=26;horizontalStack=0;resizeParent=1;resizeParentMax=0;resizeLast=0;collapsible=1;marginBottom=0;" parent="1" vertex="1">
          <mxGeometry x="-710" y="-110" width="510" height="836" as="geometry" />
        </mxCell>
        <mxCell id="ykWLb0IThOWZlfe0dgKn-14" value="#myFeature:vector&lt;Nfeature*&gt;" style="text;strokeColor=none;fillColor=none;align=left;verticalAlign=top;spacingLeft=4;spacingRight=4;overflow=hidden;rotatable=0;points=[[0,0.5],[1,0.5]];portConstraint=eastwest;" parent="ykWLb0IThOWZlfe0dgKn-13" vertex="1">
          <mxGeometry y="26" width="510" height="26" as="geometry" />
        </mxCell>
        <mxCell id="ykWLb0IThOWZlfe0dgKn-244" value="#LastF:Nfeature*" style="text;strokeColor=none;fillColor=none;align=left;verticalAlign=top;spacingLeft=4;spacingRight=4;overflow=hidden;rotatable=0;points=[[0,0.5],[1,0.5]];portConstraint=eastwest;" parent="ykWLb0IThOWZlfe0dgKn-13" vertex="1">
          <mxGeometry y="52" width="510" height="26" as="geometry" />
        </mxCell>
        <mxCell id="ykWLb0IThOWZlfe0dgKn-245" value="#SSMap:ElementName" style="text;strokeColor=none;fillColor=none;align=left;verticalAlign=top;spacingLeft=4;spacingRight=4;overflow=hidden;rotatable=0;points=[[0,0.5],[1,0.5]];portConstraint=eastwest;" parent="ykWLb0IThOWZlfe0dgKn-13" vertex="1">
          <mxGeometry y="78" width="510" height="26" as="geometry" />
        </mxCell>
        <mxCell id="ykWLb0IThOWZlfe0dgKn-248" value="#faces:TopTools_IndexedMapOfShape" style="text;strokeColor=none;fillColor=none;align=left;verticalAlign=top;spacingLeft=4;spacingRight=4;overflow=hidden;rotatable=0;points=[[0,0.5],[1,0.5]];portConstraint=eastwest;" parent="ykWLb0IThOWZlfe0dgKn-13" vertex="1">
          <mxGeometry y="104" width="510" height="26" as="geometry" />
        </mxCell>
        <mxCell id="ykWLb0IThOWZlfe0dgKn-250" value="#edges:TopTools_IndexedMapOfShape" style="text;strokeColor=none;fillColor=none;align=left;verticalAlign=top;spacingLeft=4;spacingRight=4;overflow=hidden;rotatable=0;points=[[0,0.5],[1,0.5]];portConstraint=eastwest;" parent="ykWLb0IThOWZlfe0dgKn-13" vertex="1">
          <mxGeometry y="130" width="510" height="26" as="geometry" />
        </mxCell>
        <mxCell id="ykWLb0IThOWZlfe0dgKn-249" value="#vertexs:TopTools_IndexedMapOfShape" style="text;strokeColor=none;fillColor=none;align=left;verticalAlign=top;spacingLeft=4;spacingRight=4;overflow=hidden;rotatable=0;points=[[0,0.5],[1,0.5]];portConstraint=eastwest;" parent="ykWLb0IThOWZlfe0dgKn-13" vertex="1">
          <mxGeometry y="156" width="510" height="26" as="geometry" />
        </mxCell>
        <mxCell id="ykWLb0IThOWZlfe0dgKn-15" value="" style="line;strokeWidth=1;fillColor=none;align=left;verticalAlign=middle;spacingTop=-1;spacingLeft=3;spacingRight=3;rotatable=0;labelPosition=right;points=[];portConstraint=eastwest;strokeColor=inherit;" parent="ykWLb0IThOWZlfe0dgKn-13" vertex="1">
          <mxGeometry y="182" width="510" height="8" as="geometry" />
        </mxCell>
        <mxCell id="ykWLb0IThOWZlfe0dgKn-260" value="+NtrsfFeature(mybigtype:featureBigType, mytype:NfeatureType, mylabel:const TDF_Label&amp;, &#xa;mF:vector&lt;Nfeature*&gt;)" style="text;strokeColor=none;fillColor=none;align=left;verticalAlign=top;spacingLeft=4;spacingRight=4;overflow=hidden;rotatable=0;points=[[0,0.5],[1,0.5]];portConstraint=eastwest;" parent="ykWLb0IThOWZlfe0dgKn-13" vertex="1">
          <mxGeometry y="190" width="510" height="50" as="geometry" />
        </mxCell>
        <mxCell id="ykWLb0IThOWZlfe0dgKn-266" value="+NtrsfFeature(mybigtype:featureBigType, mytype:NfeatureType, mylabel:const TDF_Label&amp; )" style="text;strokeColor=none;fillColor=none;align=left;verticalAlign=top;spacingLeft=4;spacingRight=4;overflow=hidden;rotatable=0;points=[[0,0.5],[1,0.5]];portConstraint=eastwest;" parent="ykWLb0IThOWZlfe0dgKn-13" vertex="1">
          <mxGeometry y="240" width="510" height="36" as="geometry" />
        </mxCell>
        <mxCell id="4OkeyMGWRKXnlzKa9JUR-89" value="+SetmyFeature(nf:const vector&lt;Nfeature*&gt;&amp;):void " style="text;strokeColor=none;fillColor=none;align=left;verticalAlign=top;spacingLeft=4;spacingRight=4;overflow=hidden;rotatable=0;points=[[0,0.5],[1,0.5]];portConstraint=eastwest;" parent="ykWLb0IThOWZlfe0dgKn-13" vertex="1">
          <mxGeometry y="276" width="510" height="26" as="geometry" />
        </mxCell>
        <mxCell id="4OkeyMGWRKXnlzKa9JUR-86" value="+SetmyFeature(nf:const vector&lt;Nfeature*&gt;&amp;):void " style="text;strokeColor=none;fillColor=none;align=left;verticalAlign=top;spacingLeft=4;spacingRight=4;overflow=hidden;rotatable=0;points=[[0,0.5],[1,0.5]];portConstraint=eastwest;" parent="ykWLb0IThOWZlfe0dgKn-13" vertex="1">
          <mxGeometry y="302" width="510" height="26" as="geometry" />
        </mxCell>
        <mxCell id="4OkeyMGWRKXnlzKa9JUR-87" value="+SetData(nf:vector&lt;Nfeature*&gt;):void " style="text;strokeColor=none;fillColor=none;align=left;verticalAlign=top;spacingLeft=4;spacingRight=4;overflow=hidden;rotatable=0;points=[[0,0.5],[1,0.5]];portConstraint=eastwest;" parent="ykWLb0IThOWZlfe0dgKn-13" vertex="1">
          <mxGeometry y="328" width="510" height="26" as="geometry" />
        </mxCell>
        <mxCell id="4OkeyMGWRKXnlzKa9JUR-85" value="+GetMyBody()const:TopoDS_Shape" style="text;strokeColor=none;fillColor=none;align=left;verticalAlign=top;spacingLeft=4;spacingRight=4;overflow=hidden;rotatable=0;points=[[0,0.5],[1,0.5]];portConstraint=eastwest;" parent="ykWLb0IThOWZlfe0dgKn-13" vertex="1">
          <mxGeometry y="354" width="510" height="26" as="geometry" />
        </mxCell>
        <mxCell id="4OkeyMGWRKXnlzKa9JUR-84" value="+GetShapeByName(s:const vector&lt;string&gt;,IsNeedCoded:bool) const:vector&lt;TopoDS_Shape&gt;" style="text;strokeColor=none;fillColor=none;align=left;verticalAlign=top;spacingLeft=4;spacingRight=4;overflow=hidden;rotatable=0;points=[[0,0.5],[1,0.5]];portConstraint=eastwest;" parent="ykWLb0IThOWZlfe0dgKn-13" vertex="1">
          <mxGeometry y="380" width="510" height="26" as="geometry" />
        </mxCell>
        <mxCell id="4OkeyMGWRKXnlzKa9JUR-82" value="+GetShapeByNameFromLast(s:const string&amp;) const:TopoDS_Sahpe" style="text;strokeColor=none;fillColor=none;align=left;verticalAlign=top;spacingLeft=4;spacingRight=4;overflow=hidden;rotatable=0;points=[[0,0.5],[1,0.5]];portConstraint=eastwest;" parent="ykWLb0IThOWZlfe0dgKn-13" vertex="1">
          <mxGeometry y="406" width="510" height="26" as="geometry" />
        </mxCell>
        <mxCell id="4OkeyMGWRKXnlzKa9JUR-81" value="+GetNameByShape(shape:TopoDS_Shape) const:string" style="text;strokeColor=none;fillColor=none;align=left;verticalAlign=top;spacingLeft=4;spacingRight=4;overflow=hidden;rotatable=0;points=[[0,0.5],[1,0.5]];portConstraint=eastwest;" parent="ykWLb0IThOWZlfe0dgKn-13" vertex="1">
          <mxGeometry y="432" width="510" height="26" as="geometry" />
        </mxCell>
        <mxCell id="4OkeyMGWRKXnlzKa9JUR-83" value="+GetNameByShape(shapes:const vector&lt;TopoDS_Shape&gt;&amp;,IsSave:bool):vector&lt;string&gt;" style="text;strokeColor=none;fillColor=none;align=left;verticalAlign=top;spacingLeft=4;spacingRight=4;overflow=hidden;rotatable=0;points=[[0,0.5],[1,0.5]];portConstraint=eastwest;" parent="ykWLb0IThOWZlfe0dgKn-13" vertex="1">
          <mxGeometry y="458" width="510" height="26" as="geometry" />
        </mxCell>
        <mxCell id="4OkeyMGWRKXnlzKa9JUR-80" value="+GetReferName()const:vector&lt;string&gt;" style="text;strokeColor=none;fillColor=none;align=left;verticalAlign=top;spacingLeft=4;spacingRight=4;overflow=hidden;rotatable=0;points=[[0,0.5],[1,0.5]];portConstraint=eastwest;" parent="ykWLb0IThOWZlfe0dgKn-13" vertex="1">
          <mxGeometry y="484" width="510" height="26" as="geometry" />
        </mxCell>
        <mxCell id="ykWLb0IThOWZlfe0dgKn-269" value="+GetReferNameOne()const:string" style="text;strokeColor=none;fillColor=none;align=left;verticalAlign=top;spacingLeft=4;spacingRight=4;overflow=hidden;rotatable=0;points=[[0,0.5],[1,0.5]];portConstraint=eastwest;" parent="ykWLb0IThOWZlfe0dgKn-13" vertex="1">
          <mxGeometry y="510" width="510" height="26" as="geometry" />
        </mxCell>
        <mxCell id="ykWLb0IThOWZlfe0dgKn-268" value="+GetReferShape()const:TopoDS_Shape" style="text;strokeColor=none;fillColor=none;align=left;verticalAlign=top;spacingLeft=4;spacingRight=4;overflow=hidden;rotatable=0;points=[[0,0.5],[1,0.5]];portConstraint=eastwest;" parent="ykWLb0IThOWZlfe0dgKn-13" vertex="1">
          <mxGeometry y="536" width="510" height="26" as="geometry" />
        </mxCell>
        <mxCell id="4OkeyMGWRKXnlzKa9JUR-79" value="+GetLastF()const:Nfeature*" style="text;strokeColor=none;fillColor=none;align=left;verticalAlign=top;spacingLeft=4;spacingRight=4;overflow=hidden;rotatable=0;points=[[0,0.5],[1,0.5]];portConstraint=eastwest;" parent="ykWLb0IThOWZlfe0dgKn-13" vertex="1">
          <mxGeometry y="562" width="510" height="26" as="geometry" />
        </mxCell>
        <mxCell id="ykWLb0IThOWZlfe0dgKn-267" value="+SetLastF(LastF:Nfeature*):void" style="text;strokeColor=none;fillColor=none;align=left;verticalAlign=top;spacingLeft=4;spacingRight=4;overflow=hidden;rotatable=0;points=[[0,0.5],[1,0.5]];portConstraint=eastwest;" parent="ykWLb0IThOWZlfe0dgKn-13" vertex="1">
          <mxGeometry y="588" width="510" height="26" as="geometry" />
        </mxCell>
        <mxCell id="ykWLb0IThOWZlfe0dgKn-264" value="+SetReferName(refernames:const vector&lt;string&gt;&amp;):void" style="text;strokeColor=none;fillColor=none;align=left;verticalAlign=top;spacingLeft=4;spacingRight=4;overflow=hidden;rotatable=0;points=[[0,0.5],[1,0.5]];portConstraint=eastwest;" parent="ykWLb0IThOWZlfe0dgKn-13" vertex="1">
          <mxGeometry y="614" width="510" height="26" as="geometry" />
        </mxCell>
        <mxCell id="ykWLb0IThOWZlfe0dgKn-265" value="+ResetMaps(NewBody: const TopoDS_Shape&amp;): void" style="text;strokeColor=none;fillColor=none;align=left;verticalAlign=top;spacingLeft=4;spacingRight=4;overflow=hidden;rotatable=0;points=[[0,0.5],[1,0.5]];portConstraint=eastwest;" parent="ykWLb0IThOWZlfe0dgKn-13" vertex="1">
          <mxGeometry y="640" width="510" height="26" as="geometry" />
        </mxCell>
        <mxCell id="ykWLb0IThOWZlfe0dgKn-262" value="+SetMap(SSMap: ElementName&amp;, faces: TopTools_IndexedMapOfShape, edges:&#xa;TopTools_IndexedMapOfShape, vertexs: TopTools_IndexedMapOfShape): void" style="text;strokeColor=none;fillColor=none;align=left;verticalAlign=top;spacingLeft=4;spacingRight=4;overflow=hidden;rotatable=0;points=[[0,0.5],[1,0.5]];portConstraint=eastwest;" parent="ykWLb0IThOWZlfe0dgKn-13" vertex="1">
          <mxGeometry y="666" width="510" height="40" as="geometry" />
        </mxCell>
        <mxCell id="ykWLb0IThOWZlfe0dgKn-263" value="+SetReference(refer:const TDF_Label&amp;):void" style="text;strokeColor=none;fillColor=none;align=left;verticalAlign=top;spacingLeft=4;spacingRight=4;overflow=hidden;rotatable=0;points=[[0,0.5],[1,0.5]];portConstraint=eastwest;" parent="ykWLb0IThOWZlfe0dgKn-13" vertex="1">
          <mxGeometry y="706" width="510" height="26" as="geometry" />
        </mxCell>
        <mxCell id="ykWLb0IThOWZlfe0dgKn-261" value="+GetAxisType()const:int" style="text;strokeColor=none;fillColor=none;align=left;verticalAlign=top;spacingLeft=4;spacingRight=4;overflow=hidden;rotatable=0;points=[[0,0.5],[1,0.5]];portConstraint=eastwest;" parent="ykWLb0IThOWZlfe0dgKn-13" vertex="1">
          <mxGeometry y="732" width="510" height="26" as="geometry" />
        </mxCell>
        <mxCell id="ykWLb0IThOWZlfe0dgKn-259" value="+GetNumber()const:int" style="text;strokeColor=none;fillColor=none;align=left;verticalAlign=top;spacingLeft=4;spacingRight=4;overflow=hidden;rotatable=0;points=[[0,0.5],[1,0.5]];portConstraint=eastwest;" parent="ykWLb0IThOWZlfe0dgKn-13" vertex="1">
          <mxGeometry y="758" width="510" height="26" as="geometry" />
        </mxCell>
        <mxCell id="ykWLb0IThOWZlfe0dgKn-258" value="+GetDouble()const:double" style="text;strokeColor=none;fillColor=none;align=left;verticalAlign=top;spacingLeft=4;spacingRight=4;overflow=hidden;rotatable=0;points=[[0,0.5],[1,0.5]];portConstraint=eastwest;" parent="ykWLb0IThOWZlfe0dgKn-13" vertex="1">
          <mxGeometry y="784" width="510" height="26" as="geometry" />
        </mxCell>
        <mxCell id="ykWLb0IThOWZlfe0dgKn-257" value="+facesEmpty()const:bool" style="text;strokeColor=none;fillColor=none;align=left;verticalAlign=top;spacingLeft=4;spacingRight=4;overflow=hidden;rotatable=0;points=[[0,0.5],[1,0.5]];portConstraint=eastwest;" parent="ykWLb0IThOWZlfe0dgKn-13" vertex="1">
          <mxGeometry y="810" width="510" height="26" as="geometry" />
        </mxCell>
        <mxCell id="ykWLb0IThOWZlfe0dgKn-17" value="NbasicFeature" style="swimlane;fontStyle=1;align=center;verticalAlign=top;childLayout=stackLayout;horizontal=1;startSize=26;horizontalStack=0;resizeParent=1;resizeParentMax=0;resizeLast=0;collapsible=1;marginBottom=0;" parent="1" vertex="1">
          <mxGeometry x="-95" y="800" width="520" height="720" as="geometry">
            <mxRectangle x="130" y="400" width="120" height="30" as="alternateBounds" />
          </mxGeometry>
        </mxCell>
        <mxCell id="ykWLb0IThOWZlfe0dgKn-129" value="+LastF: Nfeature*" style="text;strokeColor=none;fillColor=none;align=left;verticalAlign=top;spacingLeft=4;spacingRight=4;overflow=hidden;rotatable=0;points=[[0,0.5],[1,0.5]];portConstraint=eastwest;" parent="ykWLb0IThOWZlfe0dgKn-17" vertex="1">
          <mxGeometry y="26" width="520" height="26" as="geometry" />
        </mxCell>
        <mxCell id="ykWLb0IThOWZlfe0dgKn-131" value="+CurNbenchmarkFace: NbenchmarkFace*" style="text;strokeColor=none;fillColor=none;align=left;verticalAlign=top;spacingLeft=4;spacingRight=4;overflow=hidden;rotatable=0;points=[[0,0.5],[1,0.5]];portConstraint=eastwest;" parent="ykWLb0IThOWZlfe0dgKn-17" vertex="1">
          <mxGeometry y="52" width="520" height="26" as="geometry" />
        </mxCell>
        <mxCell id="ykWLb0IThOWZlfe0dgKn-134" value="+Nfeature* LastBody" style="text;strokeColor=none;fillColor=none;align=left;verticalAlign=top;spacingLeft=4;spacingRight=4;overflow=hidden;rotatable=0;points=[[0,0.5],[1,0.5]];portConstraint=eastwest;" parent="ykWLb0IThOWZlfe0dgKn-17" vertex="1">
          <mxGeometry y="78" width="520" height="26" as="geometry" />
        </mxCell>
        <mxCell id="ykWLb0IThOWZlfe0dgKn-133" value="+SSMap: ElementName" style="text;strokeColor=none;fillColor=none;align=left;verticalAlign=top;spacingLeft=4;spacingRight=4;overflow=hidden;rotatable=0;points=[[0,0.5],[1,0.5]];portConstraint=eastwest;" parent="ykWLb0IThOWZlfe0dgKn-17" vertex="1">
          <mxGeometry y="104" width="520" height="26" as="geometry" />
        </mxCell>
        <mxCell id="ykWLb0IThOWZlfe0dgKn-132" value="+faces: TopTools_IndexedMapOfShape" style="text;strokeColor=none;fillColor=none;align=left;verticalAlign=top;spacingLeft=4;spacingRight=4;overflow=hidden;rotatable=0;points=[[0,0.5],[1,0.5]];portConstraint=eastwest;" parent="ykWLb0IThOWZlfe0dgKn-17" vertex="1">
          <mxGeometry y="130" width="520" height="26" as="geometry" />
        </mxCell>
        <mxCell id="ykWLb0IThOWZlfe0dgKn-130" value="+edges: TopTools_IndexedMapOfShape" style="text;strokeColor=none;fillColor=none;align=left;verticalAlign=top;spacingLeft=4;spacingRight=4;overflow=hidden;rotatable=0;points=[[0,0.5],[1,0.5]];portConstraint=eastwest;" parent="ykWLb0IThOWZlfe0dgKn-17" vertex="1">
          <mxGeometry y="156" width="520" height="26" as="geometry" />
        </mxCell>
        <mxCell id="ykWLb0IThOWZlfe0dgKn-135" value="+vertexs: TopTools_IndexedMapOfShape" style="text;strokeColor=none;fillColor=none;align=left;verticalAlign=top;spacingLeft=4;spacingRight=4;overflow=hidden;rotatable=0;points=[[0,0.5],[1,0.5]];portConstraint=eastwest;" parent="ykWLb0IThOWZlfe0dgKn-17" vertex="1">
          <mxGeometry y="182" width="520" height="26" as="geometry" />
        </mxCell>
        <mxCell id="ykWLb0IThOWZlfe0dgKn-19" value="" style="line;strokeWidth=1;fillColor=none;align=left;verticalAlign=middle;spacingTop=-1;spacingLeft=3;spacingRight=3;rotatable=0;labelPosition=right;points=[];portConstraint=eastwest;strokeColor=inherit;" parent="ykWLb0IThOWZlfe0dgKn-17" vertex="1">
          <mxGeometry y="208" width="520" height="8" as="geometry" />
        </mxCell>
        <mxCell id="ykWLb0IThOWZlfe0dgKn-136" style="edgeStyle=orthogonalEdgeStyle;rounded=0;orthogonalLoop=1;jettySize=auto;html=1;exitX=1;exitY=0.5;exitDx=0;exitDy=0;" parent="ykWLb0IThOWZlfe0dgKn-17" source="ykWLb0IThOWZlfe0dgKn-132" target="ykWLb0IThOWZlfe0dgKn-132" edge="1">
          <mxGeometry relative="1" as="geometry" />
        </mxCell>
        <mxCell id="ykWLb0IThOWZlfe0dgKn-20" value="+NbasicFeature(featureBigType: featureBigType,mybigtype, NfeatureTypemytype, &#xa;NbenchmarkFace* curbenchmarkface)" style="text;strokeColor=none;fillColor=none;align=left;verticalAlign=top;spacingLeft=4;spacingRight=4;overflow=hidden;rotatable=0;points=[[0,0.5],[1,0.5]];portConstraint=eastwest;" parent="ykWLb0IThOWZlfe0dgKn-17" vertex="1">
          <mxGeometry y="216" width="520" height="44" as="geometry" />
        </mxCell>
        <mxCell id="ykWLb0IThOWZlfe0dgKn-137" value="+NbasicFeature(mybigtype: featureBigType, mytype: NfeatureType, mylabel: const TDF_Label&amp;)" style="text;strokeColor=none;fillColor=none;align=left;verticalAlign=top;spacingLeft=4;spacingRight=4;overflow=hidden;rotatable=0;points=[[0,0.5],[1,0.5]];portConstraint=eastwest;" parent="ykWLb0IThOWZlfe0dgKn-17" vertex="1">
          <mxGeometry y="260" width="520" height="26" as="geometry" />
        </mxCell>
        <mxCell id="ykWLb0IThOWZlfe0dgKn-138" value="+Execute(): TopoDS_Face" style="text;strokeColor=none;fillColor=none;align=left;verticalAlign=top;spacingLeft=4;spacingRight=4;overflow=hidden;rotatable=0;points=[[0,0.5],[1,0.5]];portConstraint=eastwest;" parent="ykWLb0IThOWZlfe0dgKn-17" vertex="1">
          <mxGeometry y="286" width="520" height="26" as="geometry" />
        </mxCell>
        <mxCell id="ykWLb0IThOWZlfe0dgKn-139" value="+GetShapeByName(s: const vector&lt;string&gt;&amp;, l IsNeedCoded: bool): vector&lt;TopoDS_Shape&gt;" style="text;strokeColor=none;fillColor=none;align=left;verticalAlign=top;spacingLeft=4;spacingRight=4;overflow=hidden;rotatable=0;points=[[0,0.5],[1,0.5]];portConstraint=eastwest;" parent="ykWLb0IThOWZlfe0dgKn-17" vertex="1">
          <mxGeometry y="312" width="520" height="26" as="geometry" />
        </mxCell>
        <mxCell id="ykWLb0IThOWZlfe0dgKn-147" value="+GetNameByShape(shape: const TopoDS_Shape&amp;): string" style="text;strokeColor=none;fillColor=none;align=left;verticalAlign=top;spacingLeft=4;spacingRight=4;overflow=hidden;rotatable=0;points=[[0,0.5],[1,0.5]];portConstraint=eastwest;" parent="ykWLb0IThOWZlfe0dgKn-17" vertex="1">
          <mxGeometry y="338" width="520" height="26" as="geometry" />
        </mxCell>
        <mxCell id="ykWLb0IThOWZlfe0dgKn-150" value="+GetNameByShape(shapes: const vector&lt;TopoDS_Shape&gt;&amp;, IsSave: bool): vector&lt;string&gt;" style="text;strokeColor=none;fillColor=none;align=left;verticalAlign=top;spacingLeft=4;spacingRight=4;overflow=hidden;rotatable=0;points=[[0,0.5],[1,0.5]];portConstraint=eastwest;" parent="ykWLb0IThOWZlfe0dgKn-17" vertex="1">
          <mxGeometry y="364" width="520" height="26" as="geometry" />
        </mxCell>
        <mxCell id="ykWLb0IThOWZlfe0dgKn-151" value="+GetLastBody(): Nfeature*" style="text;strokeColor=none;fillColor=none;align=left;verticalAlign=top;spacingLeft=4;spacingRight=4;overflow=hidden;rotatable=0;points=[[0,0.5],[1,0.5]];portConstraint=eastwest;" parent="ykWLb0IThOWZlfe0dgKn-17" vertex="1">
          <mxGeometry y="390" width="520" height="26" as="geometry" />
        </mxCell>
        <mxCell id="ykWLb0IThOWZlfe0dgKn-152" value="+GetCurNbenchmarkFace(): NbenchmarkFace*" style="text;strokeColor=none;fillColor=none;align=left;verticalAlign=top;spacingLeft=4;spacingRight=4;overflow=hidden;rotatable=0;points=[[0,0.5],[1,0.5]];portConstraint=eastwest;" parent="ykWLb0IThOWZlfe0dgKn-17" vertex="1">
          <mxGeometry y="416" width="520" height="26" as="geometry" />
        </mxCell>
        <mxCell id="ykWLb0IThOWZlfe0dgKn-153" value="+SetCurNbenchmarkFace(face: NbenchmarkFace*): void" style="text;strokeColor=none;fillColor=none;align=left;verticalAlign=top;spacingLeft=4;spacingRight=4;overflow=hidden;rotatable=0;points=[[0,0.5],[1,0.5]];portConstraint=eastwest;" parent="ykWLb0IThOWZlfe0dgKn-17" vertex="1">
          <mxGeometry y="442" width="520" height="26" as="geometry" />
        </mxCell>
        <mxCell id="ykWLb0IThOWZlfe0dgKn-149" value="+GetMyBody(): TopoDS_Shape" style="text;strokeColor=none;fillColor=none;align=left;verticalAlign=top;spacingLeft=4;spacingRight=4;overflow=hidden;rotatable=0;points=[[0,0.5],[1,0.5]];portConstraint=eastwest;" parent="ykWLb0IThOWZlfe0dgKn-17" vertex="1">
          <mxGeometry y="468" width="520" height="26" as="geometry" />
        </mxCell>
        <mxCell id="ykWLb0IThOWZlfe0dgKn-148" value="+GetLastF(): Nfeature*" style="text;strokeColor=none;fillColor=none;align=left;verticalAlign=top;spacingLeft=4;spacingRight=4;overflow=hidden;rotatable=0;points=[[0,0.5],[1,0.5]];portConstraint=eastwest;" parent="ykWLb0IThOWZlfe0dgKn-17" vertex="1">
          <mxGeometry y="494" width="520" height="26" as="geometry" />
        </mxCell>
        <mxCell id="ykWLb0IThOWZlfe0dgKn-146" value="+SetLastF(LastF: Nfeature*): void" style="text;strokeColor=none;fillColor=none;align=left;verticalAlign=top;spacingLeft=4;spacingRight=4;overflow=hidden;rotatable=0;points=[[0,0.5],[1,0.5]];portConstraint=eastwest;" parent="ykWLb0IThOWZlfe0dgKn-17" vertex="1">
          <mxGeometry y="520" width="520" height="26" as="geometry" />
        </mxCell>
        <mxCell id="ykWLb0IThOWZlfe0dgKn-143" value="+SetMap(SSMap: ElementName&amp;, faces: TopTools_IndexedMapOfShape, edges: &#xa;TopTools_IndexedMapOfShape, vertexs: TopTools_IndexedMapOfShape): void" style="text;strokeColor=none;fillColor=none;align=left;verticalAlign=top;spacingLeft=4;spacingRight=4;overflow=hidden;rotatable=0;points=[[0,0.5],[1,0.5]];portConstraint=eastwest;" parent="ykWLb0IThOWZlfe0dgKn-17" vertex="1">
          <mxGeometry y="546" width="520" height="44" as="geometry" />
        </mxCell>
        <mxCell id="ykWLb0IThOWZlfe0dgKn-160" value="+ResetMaps(NewBody: const TopoDS_Shape&amp;): void" style="text;strokeColor=none;fillColor=none;align=left;verticalAlign=top;spacingLeft=4;spacingRight=4;overflow=hidden;rotatable=0;points=[[0,0.5],[1,0.5]];portConstraint=eastwest;" parent="ykWLb0IThOWZlfe0dgKn-17" vertex="1">
          <mxGeometry y="590" width="520" height="26" as="geometry" />
        </mxCell>
        <mxCell id="ykWLb0IThOWZlfe0dgKn-159" value="+AppendSketReference(sketLabel: const TopoDS_Shape&amp;): void" style="text;strokeColor=none;fillColor=none;align=left;verticalAlign=top;spacingLeft=4;spacingRight=4;overflow=hidden;rotatable=0;points=[[0,0.5],[1,0.5]];portConstraint=eastwest;" parent="ykWLb0IThOWZlfe0dgKn-17" vertex="1">
          <mxGeometry y="616" width="520" height="26" as="geometry" />
        </mxCell>
        <mxCell id="ykWLb0IThOWZlfe0dgKn-158" value="+GetCurNbenchmarkFaceName(): string" style="text;strokeColor=none;fillColor=none;align=left;verticalAlign=top;spacingLeft=4;spacingRight=4;overflow=hidden;rotatable=0;points=[[0,0.5],[1,0.5]];portConstraint=eastwest;" parent="ykWLb0IThOWZlfe0dgKn-17" vertex="1">
          <mxGeometry y="642" width="520" height="26" as="geometry" />
        </mxCell>
        <mxCell id="ykWLb0IThOWZlfe0dgKn-157" value="+GetCurPathName(): string" style="text;strokeColor=none;fillColor=none;align=left;verticalAlign=top;spacingLeft=4;spacingRight=4;overflow=hidden;rotatable=0;points=[[0,0.5],[1,0.5]];portConstraint=eastwest;" parent="ykWLb0IThOWZlfe0dgKn-17" vertex="1">
          <mxGeometry y="668" width="520" height="26" as="geometry" />
        </mxCell>
        <mxCell id="ykWLb0IThOWZlfe0dgKn-156" value="+SetReference(refer: const TDF_Label&amp;): void" style="text;strokeColor=none;fillColor=none;align=left;verticalAlign=top;spacingLeft=4;spacingRight=4;overflow=hidden;rotatable=0;points=[[0,0.5],[1,0.5]];portConstraint=eastwest;" parent="ykWLb0IThOWZlfe0dgKn-17" vertex="1">
          <mxGeometry y="694" width="520" height="26" as="geometry" />
        </mxCell>
        <mxCell id="ykWLb0IThOWZlfe0dgKn-21" value="NextrudeFeature" style="swimlane;fontStyle=1;align=center;verticalAlign=top;childLayout=stackLayout;horizontal=1;startSize=26;horizontalStack=0;resizeParent=1;resizeParentMax=0;resizeLast=0;collapsible=1;marginBottom=0;" parent="1" vertex="1">
          <mxGeometry x="-1280" y="1640" width="520" height="270" as="geometry" />
        </mxCell>
        <mxCell id="ykWLb0IThOWZlfe0dgKn-22" value="+_count: int" style="text;strokeColor=none;fillColor=none;align=left;verticalAlign=top;spacingLeft=4;spacingRight=4;overflow=hidden;rotatable=0;points=[[0,0.5],[1,0.5]];portConstraint=eastwest;" parent="ykWLb0IThOWZlfe0dgKn-21" vertex="1">
          <mxGeometry y="26" width="520" height="26" as="geometry" />
        </mxCell>
        <mxCell id="ykWLb0IThOWZlfe0dgKn-23" value="" style="line;strokeWidth=1;fillColor=none;align=left;verticalAlign=middle;spacingTop=-1;spacingLeft=3;spacingRight=3;rotatable=0;labelPosition=right;points=[];portConstraint=eastwest;strokeColor=inherit;" parent="ykWLb0IThOWZlfe0dgKn-21" vertex="1">
          <mxGeometry y="52" width="520" height="8" as="geometry" />
        </mxCell>
        <mxCell id="ykWLb0IThOWZlfe0dgKn-166" value="+NextrudeFeature(mybigtype: featureBigType, mytype: NfeatureType, curnbenchmarkface: &#xa;NbenchmarkFace*,mylabel: const TDF_Label&amp;, x: double, y: double, z: double)" style="text;strokeColor=none;fillColor=none;align=left;verticalAlign=top;spacingLeft=4;spacingRight=4;overflow=hidden;rotatable=0;points=[[0,0.5],[1,0.5]];portConstraint=eastwest;" parent="ykWLb0IThOWZlfe0dgKn-21" vertex="1">
          <mxGeometry y="60" width="520" height="50" as="geometry" />
        </mxCell>
        <mxCell id="ykWLb0IThOWZlfe0dgKn-165" value="+NextrudeFeature(mybigtype: featureBigType, type: NfeatureType, myLabel: const TDF_Label&amp;)" style="text;strokeColor=none;fillColor=none;align=left;verticalAlign=top;spacingLeft=4;spacingRight=4;overflow=hidden;rotatable=0;points=[[0,0.5],[1,0.5]];portConstraint=eastwest;" parent="ykWLb0IThOWZlfe0dgKn-21" vertex="1">
          <mxGeometry y="110" width="520" height="30" as="geometry" />
        </mxCell>
        <mxCell id="ykWLb0IThOWZlfe0dgKn-164" value="+Builder(IsModify: bool): void" style="text;strokeColor=none;fillColor=none;align=left;verticalAlign=top;spacingLeft=4;spacingRight=4;overflow=hidden;rotatable=0;points=[[0,0.5],[1,0.5]];portConstraint=eastwest;" parent="ykWLb0IThOWZlfe0dgKn-21" vertex="1">
          <mxGeometry y="140" width="520" height="26" as="geometry" />
        </mxCell>
        <mxCell id="ykWLb0IThOWZlfe0dgKn-163" value="+Modify(): void" style="text;strokeColor=none;fillColor=none;align=left;verticalAlign=top;spacingLeft=4;spacingRight=4;overflow=hidden;rotatable=0;points=[[0,0.5],[1,0.5]];portConstraint=eastwest;" parent="ykWLb0IThOWZlfe0dgKn-21" vertex="1">
          <mxGeometry y="166" width="520" height="26" as="geometry" />
        </mxCell>
        <mxCell id="ykWLb0IThOWZlfe0dgKn-162" value="+ChongJian(LastBody: Nfeature*): void" style="text;strokeColor=none;fillColor=none;align=left;verticalAlign=top;spacingLeft=4;spacingRight=4;overflow=hidden;rotatable=0;points=[[0,0.5],[1,0.5]];portConstraint=eastwest;" parent="ykWLb0IThOWZlfe0dgKn-21" vertex="1">
          <mxGeometry y="192" width="520" height="26" as="geometry" />
        </mxCell>
        <mxCell id="ykWLb0IThOWZlfe0dgKn-161" value="+SetData(Nx: double, Ny: double, Nz: double): void" style="text;strokeColor=none;fillColor=none;align=left;verticalAlign=top;spacingLeft=4;spacingRight=4;overflow=hidden;rotatable=0;points=[[0,0.5],[1,0.5]];portConstraint=eastwest;" parent="ykWLb0IThOWZlfe0dgKn-21" vertex="1">
          <mxGeometry y="218" width="520" height="26" as="geometry" />
        </mxCell>
        <mxCell id="ykWLb0IThOWZlfe0dgKn-24" value="+GetData(Nx: double&amp;, Ny: double&amp;, Nz: double&amp;): void" style="text;strokeColor=none;fillColor=none;align=left;verticalAlign=top;spacingLeft=4;spacingRight=4;overflow=hidden;rotatable=0;points=[[0,0.5],[1,0.5]];portConstraint=eastwest;" parent="ykWLb0IThOWZlfe0dgKn-21" vertex="1">
          <mxGeometry y="244" width="520" height="26" as="geometry" />
        </mxCell>
        <mxCell id="ykWLb0IThOWZlfe0dgKn-25" value="NbenchmarkFeature" style="swimlane;fontStyle=1;align=center;verticalAlign=top;childLayout=stackLayout;horizontal=1;startSize=26;horizontalStack=0;resizeParent=1;resizeParentMax=0;resizeLast=0;collapsible=1;marginBottom=0;" parent="1" vertex="1">
          <mxGeometry x="670" width="420" height="530" as="geometry" />
        </mxCell>
        <mxCell id="ykWLb0IThOWZlfe0dgKn-26" value="#LastBody:Nfeature*" style="text;strokeColor=none;fillColor=none;align=left;verticalAlign=top;spacingLeft=4;spacingRight=4;overflow=hidden;rotatable=0;points=[[0,0.5],[1,0.5]];portConstraint=eastwest;" parent="ykWLb0IThOWZlfe0dgKn-25" vertex="1">
          <mxGeometry y="26" width="420" height="26" as="geometry" />
        </mxCell>
        <mxCell id="ykWLb0IThOWZlfe0dgKn-27" value="" style="line;strokeWidth=1;fillColor=none;align=left;verticalAlign=middle;spacingTop=-1;spacingLeft=3;spacingRight=3;rotatable=0;labelPosition=right;points=[];portConstraint=eastwest;strokeColor=inherit;" parent="ykWLb0IThOWZlfe0dgKn-25" vertex="1">
          <mxGeometry y="52" width="420" height="8" as="geometry" />
        </mxCell>
        <mxCell id="4OkeyMGWRKXnlzKa9JUR-18" value="+NbenchmarkFeature(mybigtype:featureBigType,mytype:NfeatureType, mylabel:&#xa;const TDF_Label&amp;,isdp:int,dpinfo:const vector&lt;double&gt;&amp;,lastbody:Nfeature*,&#xa;refernames：const vector&lt;string&gt;&amp;)" style="text;strokeColor=none;fillColor=none;align=left;verticalAlign=top;spacingLeft=4;spacingRight=4;overflow=hidden;rotatable=0;points=[[0,0.5],[1,0.5]];portConstraint=eastwest;" parent="ykWLb0IThOWZlfe0dgKn-25" vertex="1">
          <mxGeometry y="60" width="420" height="60" as="geometry" />
        </mxCell>
        <mxCell id="4OkeyMGWRKXnlzKa9JUR-19" value="+NbenchmarkFeature(mybigtype:featureBigType,mytype:NfeatureType, mylabel:&#xa;const TDF_Label&amp;)" style="text;strokeColor=none;fillColor=none;align=left;verticalAlign=top;spacingLeft=4;spacingRight=4;overflow=hidden;rotatable=0;points=[[0,0.5],[1,0.5]];portConstraint=eastwest;" parent="ykWLb0IThOWZlfe0dgKn-25" vertex="1">
          <mxGeometry y="120" width="420" height="50" as="geometry" />
        </mxCell>
        <mxCell id="4OkeyMGWRKXnlzKa9JUR-20" value="+GetIsDp()const:int" style="text;strokeColor=none;fillColor=none;align=left;verticalAlign=top;spacingLeft=4;spacingRight=4;overflow=hidden;rotatable=0;points=[[0,0.5],[1,0.5]];portConstraint=eastwest;" parent="ykWLb0IThOWZlfe0dgKn-25" vertex="1">
          <mxGeometry y="170" width="420" height="26" as="geometry" />
        </mxCell>
        <mxCell id="4OkeyMGWRKXnlzKa9JUR-33" value="+GetDpInfo()const:vector&lt;double&gt;" style="text;strokeColor=none;fillColor=none;align=left;verticalAlign=top;spacingLeft=4;spacingRight=4;overflow=hidden;rotatable=0;points=[[0,0.5],[1,0.5]];portConstraint=eastwest;" parent="ykWLb0IThOWZlfe0dgKn-25" vertex="1">
          <mxGeometry y="196" width="420" height="26" as="geometry" />
        </mxCell>
        <mxCell id="4OkeyMGWRKXnlzKa9JUR-30" value="+GetReferName()const:vector&lt;string&gt;" style="text;strokeColor=none;fillColor=none;align=left;verticalAlign=top;spacingLeft=4;spacingRight=4;overflow=hidden;rotatable=0;points=[[0,0.5],[1,0.5]];portConstraint=eastwest;" parent="ykWLb0IThOWZlfe0dgKn-25" vertex="1">
          <mxGeometry y="222" width="420" height="26" as="geometry" />
        </mxCell>
        <mxCell id="4OkeyMGWRKXnlzKa9JUR-32" value="+GetSTMap()const:unordered_map&lt;string,TopoDS_Shape&gt;" style="text;strokeColor=none;fillColor=none;align=left;verticalAlign=top;spacingLeft=4;spacingRight=4;overflow=hidden;rotatable=0;points=[[0,0.5],[1,0.5]];portConstraint=eastwest;" parent="ykWLb0IThOWZlfe0dgKn-25" vertex="1">
          <mxGeometry y="248" width="420" height="26" as="geometry" />
        </mxCell>
        <mxCell id="4OkeyMGWRKXnlzKa9JUR-29" value="+GetResShape() const:TopoDS_Shape" style="text;strokeColor=none;fillColor=none;align=left;verticalAlign=top;spacingLeft=4;spacingRight=4;overflow=hidden;rotatable=0;points=[[0,0.5],[1,0.5]];portConstraint=eastwest;" parent="ykWLb0IThOWZlfe0dgKn-25" vertex="1">
          <mxGeometry y="274" width="420" height="26" as="geometry" />
        </mxCell>
        <mxCell id="4OkeyMGWRKXnlzKa9JUR-31" value="+SetLastF(f:Nfeature*):void" style="text;strokeColor=none;fillColor=none;align=left;verticalAlign=top;spacingLeft=4;spacingRight=4;overflow=hidden;rotatable=0;points=[[0,0.5],[1,0.5]];portConstraint=eastwest;" parent="ykWLb0IThOWZlfe0dgKn-25" vertex="1">
          <mxGeometry y="300" width="420" height="26" as="geometry" />
        </mxCell>
        <mxCell id="4OkeyMGWRKXnlzKa9JUR-28" value="+GetLastF()const:Nfeature*" style="text;strokeColor=none;fillColor=none;align=left;verticalAlign=top;spacingLeft=4;spacingRight=4;overflow=hidden;rotatable=0;points=[[0,0.5],[1,0.5]];portConstraint=eastwest;" parent="ykWLb0IThOWZlfe0dgKn-25" vertex="1">
          <mxGeometry y="326" width="420" height="26" as="geometry" />
        </mxCell>
        <mxCell id="4OkeyMGWRKXnlzKa9JUR-27" value="+SetIsDp(isDp:int):void" style="text;strokeColor=none;fillColor=none;align=left;verticalAlign=top;spacingLeft=4;spacingRight=4;overflow=hidden;rotatable=0;points=[[0,0.5],[1,0.5]];portConstraint=eastwest;" parent="ykWLb0IThOWZlfe0dgKn-25" vertex="1">
          <mxGeometry y="352" width="420" height="26" as="geometry" />
        </mxCell>
        <mxCell id="4OkeyMGWRKXnlzKa9JUR-24" value="+SetDpInfo(NDpInfo:const vector&lt;double&gt;&amp;):void" style="text;strokeColor=none;fillColor=none;align=left;verticalAlign=top;spacingLeft=4;spacingRight=4;overflow=hidden;rotatable=0;points=[[0,0.5],[1,0.5]];portConstraint=eastwest;" parent="ykWLb0IThOWZlfe0dgKn-25" vertex="1">
          <mxGeometry y="378" width="420" height="26" as="geometry" />
        </mxCell>
        <mxCell id="4OkeyMGWRKXnlzKa9JUR-21" value="+SetReferName(const refernames:vector&lt;string&gt;&amp;):void" style="text;strokeColor=none;fillColor=none;align=left;verticalAlign=top;spacingLeft=4;spacingRight=4;overflow=hidden;rotatable=0;points=[[0,0.5],[1,0.5]];portConstraint=eastwest;" parent="ykWLb0IThOWZlfe0dgKn-25" vertex="1">
          <mxGeometry y="404" width="420" height="26" as="geometry" />
        </mxCell>
        <mxCell id="4OkeyMGWRKXnlzKa9JUR-26" value="+AppendReference(referLabel:const TDF_Label&amp;):void" style="text;strokeColor=none;fillColor=none;align=left;verticalAlign=top;spacingLeft=4;spacingRight=4;overflow=hidden;rotatable=0;points=[[0,0.5],[1,0.5]];portConstraint=eastwest;" parent="ykWLb0IThOWZlfe0dgKn-25" vertex="1">
          <mxGeometry y="430" width="420" height="26" as="geometry" />
        </mxCell>
        <mxCell id="4OkeyMGWRKXnlzKa9JUR-23" value="+QuNbench(referNames:vector&lt;string&gt;&amp; ) const:void" style="text;strokeColor=none;fillColor=none;align=left;verticalAlign=top;spacingLeft=4;spacingRight=4;overflow=hidden;rotatable=0;points=[[0,0.5],[1,0.5]];portConstraint=eastwest;" parent="ykWLb0IThOWZlfe0dgKn-25" vertex="1">
          <mxGeometry y="456" width="420" height="26" as="geometry" />
        </mxCell>
        <mxCell id="4OkeyMGWRKXnlzKa9JUR-22" value=" +IsNeedForgotDisplay():bool" style="text;strokeColor=none;fillColor=none;align=left;verticalAlign=top;spacingLeft=4;spacingRight=4;overflow=hidden;rotatable=0;points=[[0,0.5],[1,0.5]];portConstraint=eastwest;" parent="ykWLb0IThOWZlfe0dgKn-25" vertex="1">
          <mxGeometry y="482" width="420" height="26" as="geometry" />
        </mxCell>
        <mxCell id="ykWLb0IThOWZlfe0dgKn-28" value=" +GetFaceByReference()const:TopoDS_Face" style="text;strokeColor=none;fillColor=none;align=left;verticalAlign=top;spacingLeft=4;spacingRight=4;overflow=hidden;rotatable=0;points=[[0,0.5],[1,0.5]];portConstraint=eastwest;" parent="ykWLb0IThOWZlfe0dgKn-25" vertex="1">
          <mxGeometry y="508" width="420" height="22" as="geometry" />
        </mxCell>
        <mxCell id="ykWLb0IThOWZlfe0dgKn-49" value="NfilletFeature" style="swimlane;fontStyle=1;align=center;verticalAlign=top;childLayout=stackLayout;horizontal=1;startSize=26;horizontalStack=0;resizeParent=1;resizeParentMax=0;resizeLast=0;collapsible=1;marginBottom=0;" parent="1" vertex="1">
          <mxGeometry x="-340" y="-1310" width="510" height="210" as="geometry" />
        </mxCell>
        <mxCell id="ykWLb0IThOWZlfe0dgKn-50" value="+_count:int" style="text;strokeColor=none;fillColor=none;align=left;verticalAlign=top;spacingLeft=4;spacingRight=4;overflow=hidden;rotatable=0;points=[[0,0.5],[1,0.5]];portConstraint=eastwest;" parent="ykWLb0IThOWZlfe0dgKn-49" vertex="1">
          <mxGeometry y="26" width="510" height="24" as="geometry" />
        </mxCell>
        <mxCell id="ykWLb0IThOWZlfe0dgKn-51" value="" style="line;strokeWidth=1;fillColor=none;align=left;verticalAlign=middle;spacingTop=-1;spacingLeft=3;spacingRight=3;rotatable=0;labelPosition=right;points=[];portConstraint=eastwest;strokeColor=inherit;" parent="ykWLb0IThOWZlfe0dgKn-49" vertex="1">
          <mxGeometry y="50" width="510" height="8" as="geometry" />
        </mxCell>
        <mxCell id="4OkeyMGWRKXnlzKa9JUR-5" value="+NfilletFeature(mybigtype:featureBigType, type:NfeaytureType,myLabel:const TDF_Label&amp;,&#xa;r:double,refernames:vector&lt;string&gt;&amp;)" style="text;strokeColor=none;fillColor=none;align=left;verticalAlign=top;spacingLeft=4;spacingRight=4;overflow=hidden;rotatable=0;points=[[0,0.5],[1,0.5]];portConstraint=eastwest;" parent="ykWLb0IThOWZlfe0dgKn-49" vertex="1">
          <mxGeometry y="58" width="510" height="42" as="geometry" />
        </mxCell>
        <mxCell id="4OkeyMGWRKXnlzKa9JUR-4" value="+NfilletFeature(mybigtype:featureBigType, type:NfeaytureType,myLabel:const TDF_Label&amp;)" style="text;strokeColor=none;fillColor=none;align=left;verticalAlign=top;spacingLeft=4;spacingRight=4;overflow=hidden;rotatable=0;points=[[0,0.5],[1,0.5]];portConstraint=eastwest;" parent="ykWLb0IThOWZlfe0dgKn-49" vertex="1">
          <mxGeometry y="100" width="510" height="30" as="geometry" />
        </mxCell>
        <mxCell id="ykWLb0IThOWZlfe0dgKn-52" value="+Builder(IsModify: bool): void" style="text;strokeColor=none;fillColor=none;align=left;verticalAlign=top;spacingLeft=4;spacingRight=4;overflow=hidden;rotatable=0;points=[[0,0.5],[1,0.5]];portConstraint=eastwest;" parent="ykWLb0IThOWZlfe0dgKn-49" vertex="1">
          <mxGeometry y="130" width="510" height="26" as="geometry" />
        </mxCell>
        <mxCell id="4OkeyMGWRKXnlzKa9JUR-6" value="+Modify():void&#xa;" style="text;strokeColor=none;fillColor=none;align=left;verticalAlign=top;spacingLeft=4;spacingRight=4;overflow=hidden;rotatable=0;points=[[0,0.5],[1,0.5]];portConstraint=eastwest;" parent="ykWLb0IThOWZlfe0dgKn-49" vertex="1">
          <mxGeometry y="156" width="510" height="26" as="geometry" />
        </mxCell>
        <mxCell id="4OkeyMGWRKXnlzKa9JUR-7" value="+ChongJian(LastBody:Nfeature*&gt;:void&#xa;" style="text;strokeColor=none;fillColor=none;align=left;verticalAlign=top;spacingLeft=4;spacingRight=4;overflow=hidden;rotatable=0;points=[[0,0.5],[1,0.5]];portConstraint=eastwest;" parent="ykWLb0IThOWZlfe0dgKn-49" vertex="1">
          <mxGeometry y="182" width="510" height="28" as="geometry" />
        </mxCell>
        <mxCell id="ykWLb0IThOWZlfe0dgKn-85" value="Extends" style="endArrow=block;endSize=16;endFill=0;html=1;rounded=0;entryX=0;entryY=0.5;entryDx=0;entryDy=0;exitX=1.007;exitY=-0.167;exitDx=0;exitDy=0;exitPerimeter=0;" parent="1" source="4OkeyMGWRKXnlzKa9JUR-84" target="ykWLb0IThOWZlfe0dgKn-285" edge="1">
          <mxGeometry x="0.125" y="-20" width="160" relative="1" as="geometry">
            <mxPoint x="-175.20000000000027" y="202.23399999999947" as="sourcePoint" />
            <mxPoint x="168" y="186" as="targetPoint" />
            <mxPoint as="offset" />
          </mxGeometry>
        </mxCell>
        <mxCell id="ykWLb0IThOWZlfe0dgKn-88" value="Extends" style="endArrow=block;endSize=16;endFill=0;html=1;rounded=0;exitX=0.25;exitY=0;exitDx=0;exitDy=0;entryX=-0.004;entryY=0.949;entryDx=0;entryDy=0;entryPerimeter=0;" parent="1" source="ykWLb0IThOWZlfe0dgKn-21" target="ykWLb0IThOWZlfe0dgKn-156" edge="1">
          <mxGeometry width="160" relative="1" as="geometry">
            <mxPoint x="-180" y="520" as="sourcePoint" />
            <mxPoint x="80" y="990" as="targetPoint" />
            <Array as="points" />
          </mxGeometry>
        </mxCell>
        <mxCell id="ykWLb0IThOWZlfe0dgKn-90" value="Extends" style="endArrow=block;endSize=16;endFill=0;html=1;rounded=0;exitX=1;exitY=0.5;exitDx=0;exitDy=0;" parent="1" source="4OkeyMGWRKXnlzKa9JUR-112" edge="1">
          <mxGeometry width="160" relative="1" as="geometry">
            <mxPoint x="-979.52" y="335.6060000000002" as="sourcePoint" />
            <mxPoint x="-720" y="500" as="targetPoint" />
          </mxGeometry>
        </mxCell>
        <mxCell id="ykWLb0IThOWZlfe0dgKn-91" value="Extends" style="endArrow=block;endSize=16;endFill=0;html=1;rounded=0;exitX=1.012;exitY=0.867;exitDx=0;exitDy=0;exitPerimeter=0;entryX=0;entryY=0.5;entryDx=0;entryDy=0;" parent="1" source="4OkeyMGWRKXnlzKa9JUR-103" target="4OkeyMGWRKXnlzKa9JUR-84" edge="1">
          <mxGeometry width="160" relative="1" as="geometry">
            <mxPoint x="-983.28" y="125.99599999999964" as="sourcePoint" />
            <mxPoint x="-510" y="280" as="targetPoint" />
          </mxGeometry>
        </mxCell>
        <mxCell id="ykWLb0IThOWZlfe0dgKn-93" value="Extends" style="endArrow=block;endSize=16;endFill=0;html=1;rounded=0;entryX=1.015;entryY=0.8;entryDx=0;entryDy=0;entryPerimeter=0;" parent="1" edge="1">
          <mxGeometry width="160" relative="1" as="geometry">
            <mxPoint x="740" y="207" as="sourcePoint" />
            <mxPoint x="302.39999999999964" y="206.80000000000018" as="targetPoint" />
          </mxGeometry>
        </mxCell>
        <mxCell id="ykWLb0IThOWZlfe0dgKn-94" value="Extends" style="endArrow=block;endSize=16;endFill=0;html=1;rounded=0;entryX=0.413;entryY=1.064;entryDx=0;entryDy=0;entryPerimeter=0;exitX=0.418;exitY=0;exitDx=0;exitDy=0;exitPerimeter=0;" parent="1" source="ykWLb0IThOWZlfe0dgKn-17" target="ykWLb0IThOWZlfe0dgKn-296" edge="1">
          <mxGeometry width="160" relative="1" as="geometry">
            <mxPoint x="120" y="780" as="sourcePoint" />
            <mxPoint x="246.1650211565584" y="298" as="targetPoint" />
          </mxGeometry>
        </mxCell>
        <mxCell id="ykWLb0IThOWZlfe0dgKn-95" value="Extends" style="endArrow=block;endSize=16;endFill=0;html=1;rounded=0;entryX=0.642;entryY=-0.003;entryDx=0;entryDy=0;entryPerimeter=0;" parent="1" source="ykWLb0IThOWZlfe0dgKn-8" target="ykWLb0IThOWZlfe0dgKn-270" edge="1">
          <mxGeometry width="160" relative="1" as="geometry">
            <mxPoint x="-150" y="120" as="sourcePoint" />
            <mxPoint x="80" y="-120" as="targetPoint" />
          </mxGeometry>
        </mxCell>
        <mxCell id="ykWLb0IThOWZlfe0dgKn-96" value="Extends" style="endArrow=block;endSize=16;endFill=0;html=1;rounded=0;entryX=1;entryY=0.5;entryDx=0;entryDy=0;exitX=-0.008;exitY=0.093;exitDx=0;exitDy=0;exitPerimeter=0;" parent="1" source="4OkeyMGWRKXnlzKa9JUR-47" target="4OkeyMGWRKXnlzKa9JUR-31" edge="1">
          <mxGeometry width="160" relative="1" as="geometry">
            <mxPoint x="1153.0714285714284" y="246" as="sourcePoint" />
            <mxPoint x="640" y="332.5" as="targetPoint" />
          </mxGeometry>
        </mxCell>
        <mxCell id="ykWLb0IThOWZlfe0dgKn-97" value="Extends" style="endArrow=block;endSize=16;endFill=0;html=1;rounded=0;entryX=0.987;entryY=1.103;entryDx=0;entryDy=0;entryPerimeter=0;exitX=0.518;exitY=0.009;exitDx=0;exitDy=0;exitPerimeter=0;" parent="1" source="ykWLb0IThOWZlfe0dgKn-230" target="ykWLb0IThOWZlfe0dgKn-156" edge="1">
          <mxGeometry width="160" relative="1" as="geometry">
            <mxPoint x="2220" y="1300" as="sourcePoint" />
            <mxPoint x="274.72" y="553.3180000000002" as="targetPoint" />
          </mxGeometry>
        </mxCell>
        <mxCell id="ykWLb0IThOWZlfe0dgKn-98" value="Extends" style="endArrow=block;endSize=16;endFill=0;html=1;rounded=0;exitX=0.351;exitY=-0.001;exitDx=0;exitDy=0;exitPerimeter=0;entryX=0.634;entryY=1.154;entryDx=0;entryDy=0;entryPerimeter=0;" parent="1" source="ykWLb0IThOWZlfe0dgKn-205" target="ykWLb0IThOWZlfe0dgKn-156" edge="1">
          <mxGeometry width="160" relative="1" as="geometry">
            <mxPoint x="1579.2799999999997" y="1298.8600000000001" as="sourcePoint" />
            <mxPoint x="251.449991800014" y="554" as="targetPoint" />
          </mxGeometry>
        </mxCell>
        <mxCell id="ykWLb0IThOWZlfe0dgKn-99" value="Extends" style="endArrow=block;endSize=16;endFill=0;html=1;rounded=0;exitX=0.37;exitY=-0.01;exitDx=0;exitDy=0;exitPerimeter=0;entryX=0.357;entryY=1.077;entryDx=0;entryDy=0;entryPerimeter=0;" parent="1" source="ykWLb0IThOWZlfe0dgKn-191" target="ykWLb0IThOWZlfe0dgKn-156" edge="1">
          <mxGeometry width="160" relative="1" as="geometry">
            <mxPoint x="850.0799999999999" y="1280.306" as="sourcePoint" />
            <mxPoint x="-100" y="390" as="targetPoint" />
          </mxGeometry>
        </mxCell>
        <mxCell id="ykWLb0IThOWZlfe0dgKn-100" value="Extends" style="endArrow=block;endSize=16;endFill=0;html=1;rounded=0;entryX=0.273;entryY=1;entryDx=0;entryDy=0;entryPerimeter=0;exitX=0.408;exitY=-0.01;exitDx=0;exitDy=0;exitPerimeter=0;" parent="1" source="ykWLb0IThOWZlfe0dgKn-179" target="ykWLb0IThOWZlfe0dgKn-156" edge="1">
          <mxGeometry width="160" relative="1" as="geometry">
            <mxPoint x="410.1784980237153" y="1270" as="sourcePoint" />
            <mxPoint x="206.76923076923094" y="554" as="targetPoint" />
          </mxGeometry>
        </mxCell>
        <mxCell id="ykWLb0IThOWZlfe0dgKn-101" value="Extends" style="endArrow=block;endSize=16;endFill=0;html=1;rounded=0;exitX=0.47;exitY=0.007;exitDx=0;exitDy=0;exitPerimeter=0;entryX=0.159;entryY=1;entryDx=0;entryDy=0;entryPerimeter=0;" parent="1" source="ykWLb0IThOWZlfe0dgKn-167" target="ykWLb0IThOWZlfe0dgKn-156" edge="1">
          <mxGeometry width="160" relative="1" as="geometry">
            <mxPoint x="-86.40000000000009" y="1263.864" as="sourcePoint" />
            <mxPoint x="184" y="554" as="targetPoint" />
          </mxGeometry>
        </mxCell>
        <mxCell id="ykWLb0IThOWZlfe0dgKn-177" value="Text" style="edgeLabel;html=1;align=center;verticalAlign=middle;resizable=0;points=[];" parent="ykWLb0IThOWZlfe0dgKn-101" vertex="1" connectable="0">
          <mxGeometry x="-0.5314" y="2" relative="1" as="geometry">
            <mxPoint x="1" as="offset" />
          </mxGeometry>
        </mxCell>
        <mxCell id="ykWLb0IThOWZlfe0dgKn-106" value="Extends" style="endArrow=block;endSize=16;endFill=0;html=1;rounded=0;exitX=0;exitY=0.5;exitDx=0;exitDy=0;entryX=1;entryY=0.5;entryDx=0;entryDy=0;" parent="1" source="4OkeyMGWRKXnlzKa9JUR-53" target="4OkeyMGWRKXnlzKa9JUR-26" edge="1">
          <mxGeometry width="160" relative="1" as="geometry">
            <mxPoint x="1130" y="599.998" as="sourcePoint" />
            <mxPoint x="380" y="390" as="targetPoint" />
          </mxGeometry>
        </mxCell>
        <mxCell id="ykWLb0IThOWZlfe0dgKn-107" value="Extends" style="endArrow=block;endSize=16;endFill=0;html=1;rounded=0;exitX=0;exitY=0.083;exitDx=0;exitDy=0;entryX=1.012;entryY=0.831;entryDx=0;entryDy=0;entryPerimeter=0;exitPerimeter=0;" parent="1" source="4OkeyMGWRKXnlzKa9JUR-37" target="ykWLb0IThOWZlfe0dgKn-26" edge="1">
          <mxGeometry width="160" relative="1" as="geometry">
            <mxPoint x="1100" y="-88.5" as="sourcePoint" />
            <mxPoint x="585" y="50" as="targetPoint" />
          </mxGeometry>
        </mxCell>
        <mxCell id="ykWLb0IThOWZlfe0dgKn-167" value="NholeFeature" style="swimlane;fontStyle=1;align=center;verticalAlign=top;childLayout=stackLayout;horizontal=1;startSize=26;horizontalStack=0;resizeParent=1;resizeParentMax=0;resizeLast=0;collapsible=1;marginBottom=0;" parent="1" vertex="1">
          <mxGeometry x="-670" y="1640" width="520" height="270" as="geometry" />
        </mxCell>
        <mxCell id="ykWLb0IThOWZlfe0dgKn-168" value="+_count: int" style="text;strokeColor=none;fillColor=none;align=left;verticalAlign=top;spacingLeft=4;spacingRight=4;overflow=hidden;rotatable=0;points=[[0,0.5],[1,0.5]];portConstraint=eastwest;" parent="ykWLb0IThOWZlfe0dgKn-167" vertex="1">
          <mxGeometry y="26" width="520" height="26" as="geometry" />
        </mxCell>
        <mxCell id="ykWLb0IThOWZlfe0dgKn-169" value="" style="line;strokeWidth=1;fillColor=none;align=left;verticalAlign=middle;spacingTop=-1;spacingLeft=3;spacingRight=3;rotatable=0;labelPosition=right;points=[];portConstraint=eastwest;strokeColor=inherit;" parent="ykWLb0IThOWZlfe0dgKn-167" vertex="1">
          <mxGeometry y="52" width="520" height="8" as="geometry" />
        </mxCell>
        <mxCell id="ykWLb0IThOWZlfe0dgKn-170" value="+NholeFeature(mybigtype: featureBigType, mytype: NfeatureType, curnbenchmarkface: &#xa;NbenchmarkFace*,mylabel: const TDF_Label&amp;, x: double, y: double, z: double)" style="text;strokeColor=none;fillColor=none;align=left;verticalAlign=top;spacingLeft=4;spacingRight=4;overflow=hidden;rotatable=0;points=[[0,0.5],[1,0.5]];portConstraint=eastwest;" parent="ykWLb0IThOWZlfe0dgKn-167" vertex="1">
          <mxGeometry y="60" width="520" height="50" as="geometry" />
        </mxCell>
        <mxCell id="ykWLb0IThOWZlfe0dgKn-171" value="+NholeFeature(mybigtype: featureBigType, type: NfeatureType, myLabel: const TDF_Label&amp;)" style="text;strokeColor=none;fillColor=none;align=left;verticalAlign=top;spacingLeft=4;spacingRight=4;overflow=hidden;rotatable=0;points=[[0,0.5],[1,0.5]];portConstraint=eastwest;" parent="ykWLb0IThOWZlfe0dgKn-167" vertex="1">
          <mxGeometry y="110" width="520" height="30" as="geometry" />
        </mxCell>
        <mxCell id="ykWLb0IThOWZlfe0dgKn-172" value="+Builder(IsModify: bool): void" style="text;strokeColor=none;fillColor=none;align=left;verticalAlign=top;spacingLeft=4;spacingRight=4;overflow=hidden;rotatable=0;points=[[0,0.5],[1,0.5]];portConstraint=eastwest;" parent="ykWLb0IThOWZlfe0dgKn-167" vertex="1">
          <mxGeometry y="140" width="520" height="26" as="geometry" />
        </mxCell>
        <mxCell id="ykWLb0IThOWZlfe0dgKn-173" value="+Modify(): void" style="text;strokeColor=none;fillColor=none;align=left;verticalAlign=top;spacingLeft=4;spacingRight=4;overflow=hidden;rotatable=0;points=[[0,0.5],[1,0.5]];portConstraint=eastwest;" parent="ykWLb0IThOWZlfe0dgKn-167" vertex="1">
          <mxGeometry y="166" width="520" height="26" as="geometry" />
        </mxCell>
        <mxCell id="ykWLb0IThOWZlfe0dgKn-174" value="+ChongJian(LastBody: Nfeature*): void" style="text;strokeColor=none;fillColor=none;align=left;verticalAlign=top;spacingLeft=4;spacingRight=4;overflow=hidden;rotatable=0;points=[[0,0.5],[1,0.5]];portConstraint=eastwest;" parent="ykWLb0IThOWZlfe0dgKn-167" vertex="1">
          <mxGeometry y="192" width="520" height="26" as="geometry" />
        </mxCell>
        <mxCell id="ykWLb0IThOWZlfe0dgKn-175" value="+SetData(Nx: double, Ny: double, Nz: double): void" style="text;strokeColor=none;fillColor=none;align=left;verticalAlign=top;spacingLeft=4;spacingRight=4;overflow=hidden;rotatable=0;points=[[0,0.5],[1,0.5]];portConstraint=eastwest;" parent="ykWLb0IThOWZlfe0dgKn-167" vertex="1">
          <mxGeometry y="218" width="520" height="26" as="geometry" />
        </mxCell>
        <mxCell id="ykWLb0IThOWZlfe0dgKn-176" value="+GetData(Nx: double&amp;, Ny: double&amp;, Nz: double&amp;): void" style="text;strokeColor=none;fillColor=none;align=left;verticalAlign=top;spacingLeft=4;spacingRight=4;overflow=hidden;rotatable=0;points=[[0,0.5],[1,0.5]];portConstraint=eastwest;" parent="ykWLb0IThOWZlfe0dgKn-167" vertex="1">
          <mxGeometry y="244" width="520" height="26" as="geometry" />
        </mxCell>
        <mxCell id="ykWLb0IThOWZlfe0dgKn-179" value="NrevolFeature" style="swimlane;fontStyle=1;align=center;verticalAlign=top;childLayout=stackLayout;horizontal=1;startSize=26;horizontalStack=0;resizeParent=1;resizeParentMax=0;resizeLast=0;collapsible=1;marginBottom=0;" parent="1" vertex="1">
          <mxGeometry x="-100" y="1640" width="560" height="322" as="geometry" />
        </mxCell>
        <mxCell id="ykWLb0IThOWZlfe0dgKn-180" value="+_count: int" style="text;strokeColor=none;fillColor=none;align=left;verticalAlign=top;spacingLeft=4;spacingRight=4;overflow=hidden;rotatable=0;points=[[0,0.5],[1,0.5]];portConstraint=eastwest;" parent="ykWLb0IThOWZlfe0dgKn-179" vertex="1">
          <mxGeometry y="26" width="560" height="26" as="geometry" />
        </mxCell>
        <mxCell id="ykWLb0IThOWZlfe0dgKn-181" value="" style="line;strokeWidth=1;fillColor=none;align=left;verticalAlign=middle;spacingTop=-1;spacingLeft=3;spacingRight=3;rotatable=0;labelPosition=right;points=[];portConstraint=eastwest;strokeColor=inherit;" parent="ykWLb0IThOWZlfe0dgKn-179" vertex="1">
          <mxGeometry y="52" width="560" height="8" as="geometry" />
        </mxCell>
        <mxCell id="ykWLb0IThOWZlfe0dgKn-182" value="+NrevolFeature(mybigtype: featureBigType, type: NfeatureType, curnbenchmarkface: NbenchmarkFace*,&#xa; myLabel: const TDF_Label&amp;, axisType: int, angle: double, refername: string)" style="text;strokeColor=none;fillColor=none;align=left;verticalAlign=top;spacingLeft=4;spacingRight=4;overflow=hidden;rotatable=0;points=[[0,0.5],[1,0.5]];portConstraint=eastwest;" parent="ykWLb0IThOWZlfe0dgKn-179" vertex="1">
          <mxGeometry y="60" width="560" height="50" as="geometry" />
        </mxCell>
        <mxCell id="ykWLb0IThOWZlfe0dgKn-183" value="+NrevolFeature(mybigtype: featureBigType, type: NfeatureType, myLabel: const TDF_Label&amp;)" style="text;strokeColor=none;fillColor=none;align=left;verticalAlign=top;spacingLeft=4;spacingRight=4;overflow=hidden;rotatable=0;points=[[0,0.5],[1,0.5]];portConstraint=eastwest;" parent="ykWLb0IThOWZlfe0dgKn-179" vertex="1">
          <mxGeometry y="110" width="560" height="30" as="geometry" />
        </mxCell>
        <mxCell id="ykWLb0IThOWZlfe0dgKn-184" value="+Builder(IsModify: bool): void" style="text;strokeColor=none;fillColor=none;align=left;verticalAlign=top;spacingLeft=4;spacingRight=4;overflow=hidden;rotatable=0;points=[[0,0.5],[1,0.5]];portConstraint=eastwest;" parent="ykWLb0IThOWZlfe0dgKn-179" vertex="1">
          <mxGeometry y="140" width="560" height="26" as="geometry" />
        </mxCell>
        <mxCell id="ykWLb0IThOWZlfe0dgKn-185" value="+Modify(): void" style="text;strokeColor=none;fillColor=none;align=left;verticalAlign=top;spacingLeft=4;spacingRight=4;overflow=hidden;rotatable=0;points=[[0,0.5],[1,0.5]];portConstraint=eastwest;" parent="ykWLb0IThOWZlfe0dgKn-179" vertex="1">
          <mxGeometry y="166" width="560" height="26" as="geometry" />
        </mxCell>
        <mxCell id="ykWLb0IThOWZlfe0dgKn-186" value="+ChongJian(LastBody: Nfeature*): void" style="text;strokeColor=none;fillColor=none;align=left;verticalAlign=top;spacingLeft=4;spacingRight=4;overflow=hidden;rotatable=0;points=[[0,0.5],[1,0.5]];portConstraint=eastwest;" parent="ykWLb0IThOWZlfe0dgKn-179" vertex="1">
          <mxGeometry y="192" width="560" height="26" as="geometry" />
        </mxCell>
        <mxCell id="ykWLb0IThOWZlfe0dgKn-187" value="+GetAxisType(): int" style="text;strokeColor=none;fillColor=none;align=left;verticalAlign=top;spacingLeft=4;spacingRight=4;overflow=hidden;rotatable=0;points=[[0,0.5],[1,0.5]];portConstraint=eastwest;" parent="ykWLb0IThOWZlfe0dgKn-179" vertex="1">
          <mxGeometry y="218" width="560" height="26" as="geometry" />
        </mxCell>
        <mxCell id="ykWLb0IThOWZlfe0dgKn-188" value="+GetReferName(): string" style="text;strokeColor=none;fillColor=none;align=left;verticalAlign=top;spacingLeft=4;spacingRight=4;overflow=hidden;rotatable=0;points=[[0,0.5],[1,0.5]];portConstraint=eastwest;" parent="ykWLb0IThOWZlfe0dgKn-179" vertex="1">
          <mxGeometry y="244" width="560" height="26" as="geometry" />
        </mxCell>
        <mxCell id="ykWLb0IThOWZlfe0dgKn-189" value="+GetReferShape(): TopoDS_Shape" style="text;strokeColor=none;fillColor=none;align=left;verticalAlign=top;spacingLeft=4;spacingRight=4;overflow=hidden;rotatable=0;points=[[0,0.5],[1,0.5]];portConstraint=eastwest;" parent="ykWLb0IThOWZlfe0dgKn-179" vertex="1">
          <mxGeometry y="270" width="560" height="26" as="geometry" />
        </mxCell>
        <mxCell id="ykWLb0IThOWZlfe0dgKn-190" value="+SetDara(angle: double, type: int, refername: string): bool" style="text;strokeColor=none;fillColor=none;align=left;verticalAlign=top;spacingLeft=4;spacingRight=4;overflow=hidden;rotatable=0;points=[[0,0.5],[1,0.5]];portConstraint=eastwest;" parent="ykWLb0IThOWZlfe0dgKn-179" vertex="1">
          <mxGeometry y="296" width="560" height="26" as="geometry" />
        </mxCell>
        <mxCell id="ykWLb0IThOWZlfe0dgKn-191" value="NgrooveFeature" style="swimlane;fontStyle=1;align=center;verticalAlign=top;childLayout=stackLayout;horizontal=1;startSize=26;horizontalStack=0;resizeParent=1;resizeParentMax=0;resizeLast=0;collapsible=1;marginBottom=0;" parent="1" vertex="1">
          <mxGeometry x="550" y="1650" width="560" height="322" as="geometry" />
        </mxCell>
        <mxCell id="ykWLb0IThOWZlfe0dgKn-192" value="+_count: int" style="text;strokeColor=none;fillColor=none;align=left;verticalAlign=top;spacingLeft=4;spacingRight=4;overflow=hidden;rotatable=0;points=[[0,0.5],[1,0.5]];portConstraint=eastwest;" parent="ykWLb0IThOWZlfe0dgKn-191" vertex="1">
          <mxGeometry y="26" width="560" height="26" as="geometry" />
        </mxCell>
        <mxCell id="ykWLb0IThOWZlfe0dgKn-193" value="" style="line;strokeWidth=1;fillColor=none;align=left;verticalAlign=middle;spacingTop=-1;spacingLeft=3;spacingRight=3;rotatable=0;labelPosition=right;points=[];portConstraint=eastwest;strokeColor=inherit;" parent="ykWLb0IThOWZlfe0dgKn-191" vertex="1">
          <mxGeometry y="52" width="560" height="8" as="geometry" />
        </mxCell>
        <mxCell id="ykWLb0IThOWZlfe0dgKn-194" value="+NgrooveFeature(mybigtype: featureBigType, type: NfeatureType, curnbenchmarkface: NbenchmarkFace*,&#xa; myLabel: const TDF_Label&amp;, axisType: int, angle: double, refername: string)" style="text;strokeColor=none;fillColor=none;align=left;verticalAlign=top;spacingLeft=4;spacingRight=4;overflow=hidden;rotatable=0;points=[[0,0.5],[1,0.5]];portConstraint=eastwest;" parent="ykWLb0IThOWZlfe0dgKn-191" vertex="1">
          <mxGeometry y="60" width="560" height="50" as="geometry" />
        </mxCell>
        <mxCell id="ykWLb0IThOWZlfe0dgKn-195" value="+NgrooveFeature(mybigtype: featureBigType, type: NfeatureType, myLabel: const TDF_Label&amp;)" style="text;strokeColor=none;fillColor=none;align=left;verticalAlign=top;spacingLeft=4;spacingRight=4;overflow=hidden;rotatable=0;points=[[0,0.5],[1,0.5]];portConstraint=eastwest;" parent="ykWLb0IThOWZlfe0dgKn-191" vertex="1">
          <mxGeometry y="110" width="560" height="30" as="geometry" />
        </mxCell>
        <mxCell id="ykWLb0IThOWZlfe0dgKn-196" value="+Builder(IsModify: bool): void" style="text;strokeColor=none;fillColor=none;align=left;verticalAlign=top;spacingLeft=4;spacingRight=4;overflow=hidden;rotatable=0;points=[[0,0.5],[1,0.5]];portConstraint=eastwest;" parent="ykWLb0IThOWZlfe0dgKn-191" vertex="1">
          <mxGeometry y="140" width="560" height="26" as="geometry" />
        </mxCell>
        <mxCell id="ykWLb0IThOWZlfe0dgKn-197" value="+Modify(): void" style="text;strokeColor=none;fillColor=none;align=left;verticalAlign=top;spacingLeft=4;spacingRight=4;overflow=hidden;rotatable=0;points=[[0,0.5],[1,0.5]];portConstraint=eastwest;" parent="ykWLb0IThOWZlfe0dgKn-191" vertex="1">
          <mxGeometry y="166" width="560" height="26" as="geometry" />
        </mxCell>
        <mxCell id="ykWLb0IThOWZlfe0dgKn-198" value="+ChongJian(LastBody: Nfeature*): void" style="text;strokeColor=none;fillColor=none;align=left;verticalAlign=top;spacingLeft=4;spacingRight=4;overflow=hidden;rotatable=0;points=[[0,0.5],[1,0.5]];portConstraint=eastwest;" parent="ykWLb0IThOWZlfe0dgKn-191" vertex="1">
          <mxGeometry y="192" width="560" height="26" as="geometry" />
        </mxCell>
        <mxCell id="ykWLb0IThOWZlfe0dgKn-199" value="+GetAxisType(): int" style="text;strokeColor=none;fillColor=none;align=left;verticalAlign=top;spacingLeft=4;spacingRight=4;overflow=hidden;rotatable=0;points=[[0,0.5],[1,0.5]];portConstraint=eastwest;" parent="ykWLb0IThOWZlfe0dgKn-191" vertex="1">
          <mxGeometry y="218" width="560" height="26" as="geometry" />
        </mxCell>
        <mxCell id="ykWLb0IThOWZlfe0dgKn-200" value="+GetReferName(): string" style="text;strokeColor=none;fillColor=none;align=left;verticalAlign=top;spacingLeft=4;spacingRight=4;overflow=hidden;rotatable=0;points=[[0,0.5],[1,0.5]];portConstraint=eastwest;" parent="ykWLb0IThOWZlfe0dgKn-191" vertex="1">
          <mxGeometry y="244" width="560" height="26" as="geometry" />
        </mxCell>
        <mxCell id="ykWLb0IThOWZlfe0dgKn-201" value="+GetReferShape(): TopoDS_Shape" style="text;strokeColor=none;fillColor=none;align=left;verticalAlign=top;spacingLeft=4;spacingRight=4;overflow=hidden;rotatable=0;points=[[0,0.5],[1,0.5]];portConstraint=eastwest;" parent="ykWLb0IThOWZlfe0dgKn-191" vertex="1">
          <mxGeometry y="270" width="560" height="26" as="geometry" />
        </mxCell>
        <mxCell id="ykWLb0IThOWZlfe0dgKn-202" value="+SetDara(angle: double, type: int, refername: string): bool" style="text;strokeColor=none;fillColor=none;align=left;verticalAlign=top;spacingLeft=4;spacingRight=4;overflow=hidden;rotatable=0;points=[[0,0.5],[1,0.5]];portConstraint=eastwest;" parent="ykWLb0IThOWZlfe0dgKn-191" vertex="1">
          <mxGeometry y="296" width="560" height="26" as="geometry" />
        </mxCell>
        <mxCell id="ykWLb0IThOWZlfe0dgKn-205" value="NpipeFeature" style="swimlane;fontStyle=1;align=center;verticalAlign=top;childLayout=stackLayout;horizontal=1;startSize=26;horizontalStack=0;resizeParent=1;resizeParentMax=0;resizeLast=0;collapsible=1;marginBottom=0;" parent="1" vertex="1">
          <mxGeometry x="1190" y="1650" width="560" height="348" as="geometry" />
        </mxCell>
        <mxCell id="ykWLb0IThOWZlfe0dgKn-206" value="+_count: int" style="text;strokeColor=none;fillColor=none;align=left;verticalAlign=top;spacingLeft=4;spacingRight=4;overflow=hidden;rotatable=0;points=[[0,0.5],[1,0.5]];portConstraint=eastwest;" parent="ykWLb0IThOWZlfe0dgKn-205" vertex="1">
          <mxGeometry y="26" width="560" height="26" as="geometry" />
        </mxCell>
        <mxCell id="ykWLb0IThOWZlfe0dgKn-207" value="" style="line;strokeWidth=1;fillColor=none;align=left;verticalAlign=middle;spacingTop=-1;spacingLeft=3;spacingRight=3;rotatable=0;labelPosition=right;points=[];portConstraint=eastwest;strokeColor=inherit;" parent="ykWLb0IThOWZlfe0dgKn-205" vertex="1">
          <mxGeometry y="52" width="560" height="8" as="geometry" />
        </mxCell>
        <mxCell id="ykWLb0IThOWZlfe0dgKn-208" value="+NpipeFeature(mybigtype: featureBigType, type: NfeatureType, curnbenchmarkface: NbenchmarkFace*, &#xa;path: NbencmarkFace*, myLabel: const TDF_Label&amp;, refername: s vector&lt;string&gt;)" style="text;strokeColor=none;fillColor=none;align=left;verticalAlign=top;spacingLeft=4;spacingRight=4;overflow=hidden;rotatable=0;points=[[0,0.5],[1,0.5]];portConstraint=eastwest;" parent="ykWLb0IThOWZlfe0dgKn-205" vertex="1">
          <mxGeometry y="60" width="560" height="50" as="geometry" />
        </mxCell>
        <mxCell id="ykWLb0IThOWZlfe0dgKn-209" value="+NpipeFeature(mybigtype: featureBigType, type: NfeatureType, myLabel: const TDF_Label&amp;)" style="text;strokeColor=none;fillColor=none;align=left;verticalAlign=top;spacingLeft=4;spacingRight=4;overflow=hidden;rotatable=0;points=[[0,0.5],[1,0.5]];portConstraint=eastwest;" parent="ykWLb0IThOWZlfe0dgKn-205" vertex="1">
          <mxGeometry y="110" width="560" height="30" as="geometry" />
        </mxCell>
        <mxCell id="ykWLb0IThOWZlfe0dgKn-210" value="+Builder(IsModify: bool): void" style="text;strokeColor=none;fillColor=none;align=left;verticalAlign=top;spacingLeft=4;spacingRight=4;overflow=hidden;rotatable=0;points=[[0,0.5],[1,0.5]];portConstraint=eastwest;" parent="ykWLb0IThOWZlfe0dgKn-205" vertex="1">
          <mxGeometry y="140" width="560" height="26" as="geometry" />
        </mxCell>
        <mxCell id="ykWLb0IThOWZlfe0dgKn-211" value="+Modify(): void" style="text;strokeColor=none;fillColor=none;align=left;verticalAlign=top;spacingLeft=4;spacingRight=4;overflow=hidden;rotatable=0;points=[[0,0.5],[1,0.5]];portConstraint=eastwest;" parent="ykWLb0IThOWZlfe0dgKn-205" vertex="1">
          <mxGeometry y="166" width="560" height="26" as="geometry" />
        </mxCell>
        <mxCell id="ykWLb0IThOWZlfe0dgKn-212" value="+ChongJian(LastBody: Nfeature*): void" style="text;strokeColor=none;fillColor=none;align=left;verticalAlign=top;spacingLeft=4;spacingRight=4;overflow=hidden;rotatable=0;points=[[0,0.5],[1,0.5]];portConstraint=eastwest;" parent="ykWLb0IThOWZlfe0dgKn-205" vertex="1">
          <mxGeometry y="192" width="560" height="26" as="geometry" />
        </mxCell>
        <mxCell id="ykWLb0IThOWZlfe0dgKn-213" value="+GetReferName(): vector&lt;string&gt;" style="text;strokeColor=none;fillColor=none;align=left;verticalAlign=top;spacingLeft=4;spacingRight=4;overflow=hidden;rotatable=0;points=[[0,0.5],[1,0.5]];portConstraint=eastwest;" parent="ykWLb0IThOWZlfe0dgKn-205" vertex="1">
          <mxGeometry y="218" width="560" height="26" as="geometry" />
        </mxCell>
        <mxCell id="ykWLb0IThOWZlfe0dgKn-214" value="+GetPath(): NbenchamrkFace*" style="text;strokeColor=none;fillColor=none;align=left;verticalAlign=top;spacingLeft=4;spacingRight=4;overflow=hidden;rotatable=0;points=[[0,0.5],[1,0.5]];portConstraint=eastwest;" parent="ykWLb0IThOWZlfe0dgKn-205" vertex="1">
          <mxGeometry y="244" width="560" height="26" as="geometry" />
        </mxCell>
        <mxCell id="ykWLb0IThOWZlfe0dgKn-215" value="+SetPath(newPath: NbenchmarkFace*): void" style="text;strokeColor=none;fillColor=none;align=left;verticalAlign=top;spacingLeft=4;spacingRight=4;overflow=hidden;rotatable=0;points=[[0,0.5],[1,0.5]];portConstraint=eastwest;" parent="ykWLb0IThOWZlfe0dgKn-205" vertex="1">
          <mxGeometry y="270" width="560" height="26" as="geometry" />
        </mxCell>
        <mxCell id="ykWLb0IThOWZlfe0dgKn-216" value="+SetCurNbenchmarkFace(NewFace: NbenchamrkFace*): void" style="text;strokeColor=none;fillColor=none;align=left;verticalAlign=top;spacingLeft=4;spacingRight=4;overflow=hidden;rotatable=0;points=[[0,0.5],[1,0.5]];portConstraint=eastwest;" parent="ykWLb0IThOWZlfe0dgKn-205" vertex="1">
          <mxGeometry y="296" width="560" height="26" as="geometry" />
        </mxCell>
        <mxCell id="ykWLb0IThOWZlfe0dgKn-229" value="+SetReferNames(NewReferNames: vector&lt;string&gt;): void" style="text;strokeColor=none;fillColor=none;align=left;verticalAlign=top;spacingLeft=4;spacingRight=4;overflow=hidden;rotatable=0;points=[[0,0.5],[1,0.5]];portConstraint=eastwest;" parent="ykWLb0IThOWZlfe0dgKn-205" vertex="1">
          <mxGeometry y="322" width="560" height="26" as="geometry" />
        </mxCell>
        <mxCell id="ykWLb0IThOWZlfe0dgKn-230" value="NpipeCutFeature" style="swimlane;fontStyle=1;align=center;verticalAlign=top;childLayout=stackLayout;horizontal=1;startSize=26;horizontalStack=0;resizeParent=1;resizeParentMax=0;resizeLast=0;collapsible=1;marginBottom=0;" parent="1" vertex="1">
          <mxGeometry x="1830" y="1650" width="560" height="348" as="geometry" />
        </mxCell>
        <mxCell id="ykWLb0IThOWZlfe0dgKn-231" value="+_count: int" style="text;strokeColor=none;fillColor=none;align=left;verticalAlign=top;spacingLeft=4;spacingRight=4;overflow=hidden;rotatable=0;points=[[0,0.5],[1,0.5]];portConstraint=eastwest;" parent="ykWLb0IThOWZlfe0dgKn-230" vertex="1">
          <mxGeometry y="26" width="560" height="26" as="geometry" />
        </mxCell>
        <mxCell id="ykWLb0IThOWZlfe0dgKn-232" value="" style="line;strokeWidth=1;fillColor=none;align=left;verticalAlign=middle;spacingTop=-1;spacingLeft=3;spacingRight=3;rotatable=0;labelPosition=right;points=[];portConstraint=eastwest;strokeColor=inherit;" parent="ykWLb0IThOWZlfe0dgKn-230" vertex="1">
          <mxGeometry y="52" width="560" height="8" as="geometry" />
        </mxCell>
        <mxCell id="ykWLb0IThOWZlfe0dgKn-233" value="+NpipeCutFeature(mybigtype: featureBigType, type: NfeatureType, curnbenchmarkface: NbenchmarkFace*, &#xa;path: NbencmarkFace*, myLabel: const TDF_Label&amp;, refername: s vector&lt;string&gt;)" style="text;strokeColor=none;fillColor=none;align=left;verticalAlign=top;spacingLeft=4;spacingRight=4;overflow=hidden;rotatable=0;points=[[0,0.5],[1,0.5]];portConstraint=eastwest;" parent="ykWLb0IThOWZlfe0dgKn-230" vertex="1">
          <mxGeometry y="60" width="560" height="50" as="geometry" />
        </mxCell>
        <mxCell id="ykWLb0IThOWZlfe0dgKn-234" value="+NpipeCutFeature(mybigtype: featureBigType, type: NfeatureType, myLabel: const TDF_Label&amp;)" style="text;strokeColor=none;fillColor=none;align=left;verticalAlign=top;spacingLeft=4;spacingRight=4;overflow=hidden;rotatable=0;points=[[0,0.5],[1,0.5]];portConstraint=eastwest;" parent="ykWLb0IThOWZlfe0dgKn-230" vertex="1">
          <mxGeometry y="110" width="560" height="30" as="geometry" />
        </mxCell>
        <mxCell id="ykWLb0IThOWZlfe0dgKn-235" value="+Builder(IsModify: bool): void" style="text;strokeColor=none;fillColor=none;align=left;verticalAlign=top;spacingLeft=4;spacingRight=4;overflow=hidden;rotatable=0;points=[[0,0.5],[1,0.5]];portConstraint=eastwest;" parent="ykWLb0IThOWZlfe0dgKn-230" vertex="1">
          <mxGeometry y="140" width="560" height="26" as="geometry" />
        </mxCell>
        <mxCell id="ykWLb0IThOWZlfe0dgKn-236" value="+Modify(): void" style="text;strokeColor=none;fillColor=none;align=left;verticalAlign=top;spacingLeft=4;spacingRight=4;overflow=hidden;rotatable=0;points=[[0,0.5],[1,0.5]];portConstraint=eastwest;" parent="ykWLb0IThOWZlfe0dgKn-230" vertex="1">
          <mxGeometry y="166" width="560" height="26" as="geometry" />
        </mxCell>
        <mxCell id="ykWLb0IThOWZlfe0dgKn-237" value="+ChongJian(LastBody: Nfeature*): void" style="text;strokeColor=none;fillColor=none;align=left;verticalAlign=top;spacingLeft=4;spacingRight=4;overflow=hidden;rotatable=0;points=[[0,0.5],[1,0.5]];portConstraint=eastwest;" parent="ykWLb0IThOWZlfe0dgKn-230" vertex="1">
          <mxGeometry y="192" width="560" height="26" as="geometry" />
        </mxCell>
        <mxCell id="ykWLb0IThOWZlfe0dgKn-238" value="+GetReferName(): vector&lt;string&gt;" style="text;strokeColor=none;fillColor=none;align=left;verticalAlign=top;spacingLeft=4;spacingRight=4;overflow=hidden;rotatable=0;points=[[0,0.5],[1,0.5]];portConstraint=eastwest;" parent="ykWLb0IThOWZlfe0dgKn-230" vertex="1">
          <mxGeometry y="218" width="560" height="26" as="geometry" />
        </mxCell>
        <mxCell id="ykWLb0IThOWZlfe0dgKn-239" value="+GetPath(): NbenchamrkFace*" style="text;strokeColor=none;fillColor=none;align=left;verticalAlign=top;spacingLeft=4;spacingRight=4;overflow=hidden;rotatable=0;points=[[0,0.5],[1,0.5]];portConstraint=eastwest;" parent="ykWLb0IThOWZlfe0dgKn-230" vertex="1">
          <mxGeometry y="244" width="560" height="26" as="geometry" />
        </mxCell>
        <mxCell id="ykWLb0IThOWZlfe0dgKn-240" value="+SetPath(newPath: NbenchmarkFace*): void" style="text;strokeColor=none;fillColor=none;align=left;verticalAlign=top;spacingLeft=4;spacingRight=4;overflow=hidden;rotatable=0;points=[[0,0.5],[1,0.5]];portConstraint=eastwest;" parent="ykWLb0IThOWZlfe0dgKn-230" vertex="1">
          <mxGeometry y="270" width="560" height="26" as="geometry" />
        </mxCell>
        <mxCell id="ykWLb0IThOWZlfe0dgKn-241" value="+SetCurNbenchmarkFace(NewFace: NbenchamrkFace*): void" style="text;strokeColor=none;fillColor=none;align=left;verticalAlign=top;spacingLeft=4;spacingRight=4;overflow=hidden;rotatable=0;points=[[0,0.5],[1,0.5]];portConstraint=eastwest;" parent="ykWLb0IThOWZlfe0dgKn-230" vertex="1">
          <mxGeometry y="296" width="560" height="26" as="geometry" />
        </mxCell>
        <mxCell id="ykWLb0IThOWZlfe0dgKn-242" value="+SetReferNames(NewReferNames: vector&lt;string&gt;): void" style="text;strokeColor=none;fillColor=none;align=left;verticalAlign=top;spacingLeft=4;spacingRight=4;overflow=hidden;rotatable=0;points=[[0,0.5],[1,0.5]];portConstraint=eastwest;" parent="ykWLb0IThOWZlfe0dgKn-230" vertex="1">
          <mxGeometry y="322" width="560" height="26" as="geometry" />
        </mxCell>
        <mxCell id="ykWLb0IThOWZlfe0dgKn-270" value="Nfeature" style="swimlane;fontStyle=1;align=center;verticalAlign=top;childLayout=stackLayout;horizontal=1;startSize=26;horizontalStack=0;resizeParent=1;resizeParentMax=0;resizeLast=0;collapsible=1;marginBottom=0;" parent="1" vertex="1">
          <mxGeometry x="-10" y="-120" width="320" height="684" as="geometry" />
        </mxCell>
        <mxCell id="ykWLb0IThOWZlfe0dgKn-271" value="+MyBigType: featureBigType" style="text;strokeColor=none;fillColor=none;align=left;verticalAlign=top;spacingLeft=4;spacingRight=4;overflow=hidden;rotatable=0;points=[[0,0.5],[1,0.5]];portConstraint=eastwest;" parent="ykWLb0IThOWZlfe0dgKn-270" vertex="1">
          <mxGeometry y="26" width="320" height="26" as="geometry" />
        </mxCell>
        <mxCell id="ykWLb0IThOWZlfe0dgKn-272" value="+MyType: featureType" style="text;strokeColor=none;fillColor=none;align=left;verticalAlign=top;spacingLeft=4;spacingRight=4;overflow=hidden;rotatable=0;points=[[0,0.5],[1,0.5]];portConstraint=eastwest;" parent="ykWLb0IThOWZlfe0dgKn-270" vertex="1">
          <mxGeometry y="52" width="320" height="26" as="geometry" />
        </mxCell>
        <mxCell id="ykWLb0IThOWZlfe0dgKn-273" value="+mLbel: TDF_Label" style="text;strokeColor=none;fillColor=none;align=left;verticalAlign=top;spacingLeft=4;spacingRight=4;overflow=hidden;rotatable=0;points=[[0,0.5],[1,0.5]];portConstraint=eastwest;" parent="ykWLb0IThOWZlfe0dgKn-270" vertex="1">
          <mxGeometry y="78" width="320" height="26" as="geometry" />
        </mxCell>
        <mxCell id="ykWLb0IThOWZlfe0dgKn-274" value="+mycount: int" style="text;strokeColor=none;fillColor=none;align=left;verticalAlign=top;spacingLeft=4;spacingRight=4;overflow=hidden;rotatable=0;points=[[0,0.5],[1,0.5]];portConstraint=eastwest;" parent="ykWLb0IThOWZlfe0dgKn-270" vertex="1">
          <mxGeometry y="104" width="320" height="26" as="geometry" />
        </mxCell>
        <mxCell id="ykWLb0IThOWZlfe0dgKn-275" value="+_myContext: Handle(AIS_InteractiveContext)" style="text;strokeColor=none;fillColor=none;align=left;verticalAlign=top;spacingLeft=4;spacingRight=4;overflow=hidden;rotatable=0;points=[[0,0.5],[1,0.5]];portConstraint=eastwest;" parent="ykWLb0IThOWZlfe0dgKn-270" vertex="1">
          <mxGeometry y="130" width="320" height="26" as="geometry" />
        </mxCell>
        <mxCell id="ykWLb0IThOWZlfe0dgKn-276" value="+_myView: Handle(V3d_View)" style="text;strokeColor=none;fillColor=none;align=left;verticalAlign=top;spacingLeft=4;spacingRight=4;overflow=hidden;rotatable=0;points=[[0,0.5],[1,0.5]];portConstraint=eastwest;" parent="ykWLb0IThOWZlfe0dgKn-270" vertex="1">
          <mxGeometry y="156" width="320" height="26" as="geometry" />
        </mxCell>
        <mxCell id="ykWLb0IThOWZlfe0dgKn-277" value="+_Handle(TDocStd_Document): doc" style="text;strokeColor=none;fillColor=none;align=left;verticalAlign=top;spacingLeft=4;spacingRight=4;overflow=hidden;rotatable=0;points=[[0,0.5],[1,0.5]];portConstraint=eastwest;" parent="ykWLb0IThOWZlfe0dgKn-270" vertex="1">
          <mxGeometry y="182" width="320" height="26" as="geometry" />
        </mxCell>
        <mxCell id="ykWLb0IThOWZlfe0dgKn-278" value="+x: int" style="text;strokeColor=none;fillColor=none;align=left;verticalAlign=top;spacingLeft=4;spacingRight=4;overflow=hidden;rotatable=0;points=[[0,0.5],[1,0.5]];portConstraint=eastwest;" parent="ykWLb0IThOWZlfe0dgKn-270" vertex="1">
          <mxGeometry y="208" width="320" height="26" as="geometry" />
        </mxCell>
        <mxCell id="ykWLb0IThOWZlfe0dgKn-279" value="+y: int" style="text;strokeColor=none;fillColor=none;align=left;verticalAlign=top;spacingLeft=4;spacingRight=4;overflow=hidden;rotatable=0;points=[[0,0.5],[1,0.5]];portConstraint=eastwest;" parent="ykWLb0IThOWZlfe0dgKn-270" vertex="1">
          <mxGeometry y="234" width="320" height="26" as="geometry" />
        </mxCell>
        <mxCell id="ykWLb0IThOWZlfe0dgKn-280" value="" style="line;strokeWidth=1;fillColor=none;align=left;verticalAlign=middle;spacingTop=-1;spacingLeft=3;spacingRight=3;rotatable=0;labelPosition=right;points=[];portConstraint=eastwest;strokeColor=inherit;" parent="ykWLb0IThOWZlfe0dgKn-270" vertex="1">
          <mxGeometry y="260" width="320" height="8" as="geometry" />
        </mxCell>
        <mxCell id="ykWLb0IThOWZlfe0dgKn-281" value="+Nfeature(featureBigType mybigtype, featureType mytype)" style="text;strokeColor=none;fillColor=none;align=left;verticalAlign=top;spacingLeft=4;spacingRight=4;overflow=hidden;rotatable=0;points=[[0,0.5],[1,0.5]];portConstraint=eastwest;" parent="ykWLb0IThOWZlfe0dgKn-270" vertex="1">
          <mxGeometry y="268" width="320" height="26" as="geometry" />
        </mxCell>
        <mxCell id="ykWLb0IThOWZlfe0dgKn-282" value="+GetBigType(): featureBigType" style="text;strokeColor=none;fillColor=none;align=left;verticalAlign=top;spacingLeft=4;spacingRight=4;overflow=hidden;rotatable=0;points=[[0,0.5],[1,0.5]];portConstraint=eastwest;" parent="ykWLb0IThOWZlfe0dgKn-270" vertex="1">
          <mxGeometry y="294" width="320" height="26" as="geometry" />
        </mxCell>
        <mxCell id="ykWLb0IThOWZlfe0dgKn-283" value="+GetType(): featureType" style="text;strokeColor=none;fillColor=none;align=left;verticalAlign=top;spacingLeft=4;spacingRight=4;overflow=hidden;rotatable=0;points=[[0,0.5],[1,0.5]];portConstraint=eastwest;" parent="ykWLb0IThOWZlfe0dgKn-270" vertex="1">
          <mxGeometry y="320" width="320" height="26" as="geometry" />
        </mxCell>
        <mxCell id="ykWLb0IThOWZlfe0dgKn-284" value="+Builder(IsModify: bool): void" style="text;strokeColor=none;fillColor=none;align=left;verticalAlign=top;spacingLeft=4;spacingRight=4;overflow=hidden;rotatable=0;points=[[0,0.5],[1,0.5]];portConstraint=eastwest;" parent="ykWLb0IThOWZlfe0dgKn-270" vertex="1">
          <mxGeometry y="346" width="320" height="26" as="geometry" />
        </mxCell>
        <mxCell id="ykWLb0IThOWZlfe0dgKn-285" value="+Modify(): void" style="text;strokeColor=none;fillColor=none;align=left;verticalAlign=top;spacingLeft=4;spacingRight=4;overflow=hidden;rotatable=0;points=[[0,0.5],[1,0.5]];portConstraint=eastwest;" parent="ykWLb0IThOWZlfe0dgKn-270" vertex="1">
          <mxGeometry y="372" width="320" height="26" as="geometry" />
        </mxCell>
        <mxCell id="ykWLb0IThOWZlfe0dgKn-286" value="+ChongJian(LastBody: Nfeature*): void" style="text;strokeColor=none;fillColor=none;align=left;verticalAlign=top;spacingLeft=4;spacingRight=4;overflow=hidden;rotatable=0;points=[[0,0.5],[1,0.5]];portConstraint=eastwest;" parent="ykWLb0IThOWZlfe0dgKn-270" vertex="1">
          <mxGeometry y="398" width="320" height="26" as="geometry" />
        </mxCell>
        <mxCell id="ykWLb0IThOWZlfe0dgKn-287" value="+DisplayObj(): void" style="text;strokeColor=none;fillColor=none;align=left;verticalAlign=top;spacingLeft=4;spacingRight=4;overflow=hidden;rotatable=0;points=[[0,0.5],[1,0.5]];portConstraint=eastwest;" parent="ykWLb0IThOWZlfe0dgKn-270" vertex="1">
          <mxGeometry y="424" width="320" height="26" as="geometry" />
        </mxCell>
        <mxCell id="ykWLb0IThOWZlfe0dgKn-288" value="+EraseObj(): void" style="text;strokeColor=none;fillColor=none;align=left;verticalAlign=top;spacingLeft=4;spacingRight=4;overflow=hidden;rotatable=0;points=[[0,0.5],[1,0.5]];portConstraint=eastwest;" parent="ykWLb0IThOWZlfe0dgKn-270" vertex="1">
          <mxGeometry y="450" width="320" height="26" as="geometry" />
        </mxCell>
        <mxCell id="ykWLb0IThOWZlfe0dgKn-289" value="+Set(x: int, y: int, IsFirst: bool): void" style="text;strokeColor=none;fillColor=none;align=left;verticalAlign=top;spacingLeft=4;spacingRight=4;overflow=hidden;rotatable=0;points=[[0,0.5],[1,0.5]];portConstraint=eastwest;" parent="ykWLb0IThOWZlfe0dgKn-270" vertex="1">
          <mxGeometry y="476" width="320" height="26" as="geometry" />
        </mxCell>
        <mxCell id="ykWLb0IThOWZlfe0dgKn-290" value="+void SetSgow(IsShow: bool): bool" style="text;strokeColor=none;fillColor=none;align=left;verticalAlign=top;spacingLeft=4;spacingRight=4;overflow=hidden;rotatable=0;points=[[0,0.5],[1,0.5]];portConstraint=eastwest;" parent="ykWLb0IThOWZlfe0dgKn-270" vertex="1">
          <mxGeometry y="502" width="320" height="26" as="geometry" />
        </mxCell>
        <mxCell id="ykWLb0IThOWZlfe0dgKn-291" value="+IsShow(): bool" style="text;strokeColor=none;fillColor=none;align=left;verticalAlign=top;spacingLeft=4;spacingRight=4;overflow=hidden;rotatable=0;points=[[0,0.5],[1,0.5]];portConstraint=eastwest;" parent="ykWLb0IThOWZlfe0dgKn-270" vertex="1">
          <mxGeometry y="528" width="320" height="26" as="geometry" />
        </mxCell>
        <mxCell id="ykWLb0IThOWZlfe0dgKn-292" value="+GetX(IsFirst: bool): int" style="text;strokeColor=none;fillColor=none;align=left;verticalAlign=top;spacingLeft=4;spacingRight=4;overflow=hidden;rotatable=0;points=[[0,0.5],[1,0.5]];portConstraint=eastwest;" parent="ykWLb0IThOWZlfe0dgKn-270" vertex="1">
          <mxGeometry y="554" width="320" height="26" as="geometry" />
        </mxCell>
        <mxCell id="ykWLb0IThOWZlfe0dgKn-293" value="+GetY(IsFirst: bool): int" style="text;strokeColor=none;fillColor=none;align=left;verticalAlign=top;spacingLeft=4;spacingRight=4;overflow=hidden;rotatable=0;points=[[0,0.5],[1,0.5]];portConstraint=eastwest;" parent="ykWLb0IThOWZlfe0dgKn-270" vertex="1">
          <mxGeometry y="580" width="320" height="26" as="geometry" />
        </mxCell>
        <mxCell id="ykWLb0IThOWZlfe0dgKn-294" value="+GetName(): string" style="text;strokeColor=none;fillColor=none;align=left;verticalAlign=top;spacingLeft=4;spacingRight=4;overflow=hidden;rotatable=0;points=[[0,0.5],[1,0.5]];portConstraint=eastwest;" parent="ykWLb0IThOWZlfe0dgKn-270" vertex="1">
          <mxGeometry y="606" width="320" height="26" as="geometry" />
        </mxCell>
        <mxCell id="ykWLb0IThOWZlfe0dgKn-295" value="+GetMyLabel(): const TDF_Label&amp;" style="text;strokeColor=none;fillColor=none;align=left;verticalAlign=top;spacingLeft=4;spacingRight=4;overflow=hidden;rotatable=0;points=[[0,0.5],[1,0.5]];portConstraint=eastwest;" parent="ykWLb0IThOWZlfe0dgKn-270" vertex="1">
          <mxGeometry y="632" width="320" height="26" as="geometry" />
        </mxCell>
        <mxCell id="ykWLb0IThOWZlfe0dgKn-296" value="+GetShape(): TopoDS_Shape" style="text;strokeColor=none;fillColor=none;align=left;verticalAlign=top;spacingLeft=4;spacingRight=4;overflow=hidden;rotatable=0;points=[[0,0.5],[1,0.5]];portConstraint=eastwest;" parent="ykWLb0IThOWZlfe0dgKn-270" vertex="1">
          <mxGeometry y="658" width="320" height="26" as="geometry" />
        </mxCell>
        <mxCell id="4OkeyMGWRKXnlzKa9JUR-8" value="NchamferFeature" style="swimlane;fontStyle=1;align=center;verticalAlign=top;childLayout=stackLayout;horizontal=1;startSize=26;horizontalStack=0;resizeParent=1;resizeParentMax=0;resizeLast=0;collapsible=1;marginBottom=0;" parent="1" vertex="1">
          <mxGeometry x="340" y="-1320" width="510" height="210" as="geometry" />
        </mxCell>
        <mxCell id="4OkeyMGWRKXnlzKa9JUR-9" value="+_count:int" style="text;strokeColor=none;fillColor=none;align=left;verticalAlign=top;spacingLeft=4;spacingRight=4;overflow=hidden;rotatable=0;points=[[0,0.5],[1,0.5]];portConstraint=eastwest;" parent="4OkeyMGWRKXnlzKa9JUR-8" vertex="1">
          <mxGeometry y="26" width="510" height="24" as="geometry" />
        </mxCell>
        <mxCell id="4OkeyMGWRKXnlzKa9JUR-10" value="" style="line;strokeWidth=1;fillColor=none;align=left;verticalAlign=middle;spacingTop=-1;spacingLeft=3;spacingRight=3;rotatable=0;labelPosition=right;points=[];portConstraint=eastwest;strokeColor=inherit;" parent="4OkeyMGWRKXnlzKa9JUR-8" vertex="1">
          <mxGeometry y="50" width="510" height="8" as="geometry" />
        </mxCell>
        <mxCell id="4OkeyMGWRKXnlzKa9JUR-11" value="+NchamferFeature(mybigtype:featureBigType, type:NfeaytureType,myLabel:const TDF_Label&amp;,&#xa;r:double,refernames:vector&lt;string&gt;&amp;)" style="text;strokeColor=none;fillColor=none;align=left;verticalAlign=top;spacingLeft=4;spacingRight=4;overflow=hidden;rotatable=0;points=[[0,0.5],[1,0.5]];portConstraint=eastwest;" parent="4OkeyMGWRKXnlzKa9JUR-8" vertex="1">
          <mxGeometry y="58" width="510" height="42" as="geometry" />
        </mxCell>
        <mxCell id="4OkeyMGWRKXnlzKa9JUR-12" value="+NchamferFeature(mybigtype:featureBigType, type:NfeaytureType,myLabel:const TDF_Label&amp;)" style="text;strokeColor=none;fillColor=none;align=left;verticalAlign=top;spacingLeft=4;spacingRight=4;overflow=hidden;rotatable=0;points=[[0,0.5],[1,0.5]];portConstraint=eastwest;" parent="4OkeyMGWRKXnlzKa9JUR-8" vertex="1">
          <mxGeometry y="100" width="510" height="30" as="geometry" />
        </mxCell>
        <mxCell id="4OkeyMGWRKXnlzKa9JUR-13" value="+Builder(IsModify: bool): void" style="text;strokeColor=none;fillColor=none;align=left;verticalAlign=top;spacingLeft=4;spacingRight=4;overflow=hidden;rotatable=0;points=[[0,0.5],[1,0.5]];portConstraint=eastwest;" parent="4OkeyMGWRKXnlzKa9JUR-8" vertex="1">
          <mxGeometry y="130" width="510" height="26" as="geometry" />
        </mxCell>
        <mxCell id="4OkeyMGWRKXnlzKa9JUR-14" value="+Modify():void&#xa;" style="text;strokeColor=none;fillColor=none;align=left;verticalAlign=top;spacingLeft=4;spacingRight=4;overflow=hidden;rotatable=0;points=[[0,0.5],[1,0.5]];portConstraint=eastwest;" parent="4OkeyMGWRKXnlzKa9JUR-8" vertex="1">
          <mxGeometry y="156" width="510" height="26" as="geometry" />
        </mxCell>
        <mxCell id="4OkeyMGWRKXnlzKa9JUR-15" value="+ChongJian(LastBody:Nfeature*&gt;:void&#xa;" style="text;strokeColor=none;fillColor=none;align=left;verticalAlign=top;spacingLeft=4;spacingRight=4;overflow=hidden;rotatable=0;points=[[0,0.5],[1,0.5]];portConstraint=eastwest;" parent="4OkeyMGWRKXnlzKa9JUR-8" vertex="1">
          <mxGeometry y="182" width="510" height="28" as="geometry" />
        </mxCell>
        <mxCell id="4OkeyMGWRKXnlzKa9JUR-16" value="Extends" style="endArrow=block;endSize=16;endFill=0;html=1;rounded=0;entryX=0.426;entryY=0.004;entryDx=0;entryDy=0;entryPerimeter=0;" parent="1" source="4OkeyMGWRKXnlzKa9JUR-7" target="ykWLb0IThOWZlfe0dgKn-5" edge="1">
          <mxGeometry width="160" relative="1" as="geometry">
            <mxPoint x="80" y="-900" as="sourcePoint" />
            <mxPoint x="170" y="-720" as="targetPoint" />
          </mxGeometry>
        </mxCell>
        <mxCell id="4OkeyMGWRKXnlzKa9JUR-17" value="Extends" style="endArrow=block;endSize=16;endFill=0;html=1;rounded=0;entryX=0.622;entryY=-0.006;entryDx=0;entryDy=0;entryPerimeter=0;exitX=0.428;exitY=1.014;exitDx=0;exitDy=0;exitPerimeter=0;" parent="1" source="4OkeyMGWRKXnlzKa9JUR-15" target="ykWLb0IThOWZlfe0dgKn-5" edge="1">
          <mxGeometry width="160" relative="1" as="geometry">
            <mxPoint x="80" y="-900" as="sourcePoint" />
            <mxPoint x="240" y="-900" as="targetPoint" />
          </mxGeometry>
        </mxCell>
        <mxCell id="4OkeyMGWRKXnlzKa9JUR-34" value="NbenchmarkPoint" style="swimlane;fontStyle=1;align=center;verticalAlign=top;childLayout=stackLayout;horizontal=1;startSize=26;horizontalStack=0;resizeParent=1;resizeParentMax=0;resizeLast=0;collapsible=1;marginBottom=0;" parent="1" vertex="1">
          <mxGeometry x="1570" y="-420" width="520" height="210" as="geometry" />
        </mxCell>
        <mxCell id="4OkeyMGWRKXnlzKa9JUR-35" value="+_count:int" style="text;strokeColor=none;fillColor=none;align=left;verticalAlign=top;spacingLeft=4;spacingRight=4;overflow=hidden;rotatable=0;points=[[0,0.5],[1,0.5]];portConstraint=eastwest;" parent="4OkeyMGWRKXnlzKa9JUR-34" vertex="1">
          <mxGeometry y="26" width="520" height="24" as="geometry" />
        </mxCell>
        <mxCell id="4OkeyMGWRKXnlzKa9JUR-36" value="" style="line;strokeWidth=1;fillColor=none;align=left;verticalAlign=middle;spacingTop=-1;spacingLeft=3;spacingRight=3;rotatable=0;labelPosition=right;points=[];portConstraint=eastwest;strokeColor=inherit;" parent="4OkeyMGWRKXnlzKa9JUR-34" vertex="1">
          <mxGeometry y="50" width="520" height="8" as="geometry" />
        </mxCell>
        <mxCell id="4OkeyMGWRKXnlzKa9JUR-37" value="+NbenchmarkPoint(mybigtype:featureBigType, type:NfeaytureType,myLabel:const TDF_Label&amp;,&#xa;isDp:int, dpinfo:vector&lt;double&gt;&amp;,lastbody:Nfeature*,std::vector&lt;std::string&gt;&amp; refernames)" style="text;strokeColor=none;fillColor=none;align=left;verticalAlign=top;spacingLeft=4;spacingRight=4;overflow=hidden;rotatable=0;points=[[0,0.5],[1,0.5]];portConstraint=eastwest;" parent="4OkeyMGWRKXnlzKa9JUR-34" vertex="1">
          <mxGeometry y="58" width="520" height="42" as="geometry" />
        </mxCell>
        <mxCell id="4OkeyMGWRKXnlzKa9JUR-38" value="+NbenchmarkPoint(mybigtype:eatureBigType, type:NfeaytureType,myLabel:const TDF_Label&amp;)" style="text;strokeColor=none;fillColor=none;align=left;verticalAlign=top;spacingLeft=4;spacingRight=4;overflow=hidden;rotatable=0;points=[[0,0.5],[1,0.5]];portConstraint=eastwest;" parent="4OkeyMGWRKXnlzKa9JUR-34" vertex="1">
          <mxGeometry y="100" width="520" height="30" as="geometry" />
        </mxCell>
        <mxCell id="4OkeyMGWRKXnlzKa9JUR-39" value="+Builder(IsModify: bool): void" style="text;strokeColor=none;fillColor=none;align=left;verticalAlign=top;spacingLeft=4;spacingRight=4;overflow=hidden;rotatable=0;points=[[0,0.5],[1,0.5]];portConstraint=eastwest;" parent="4OkeyMGWRKXnlzKa9JUR-34" vertex="1">
          <mxGeometry y="130" width="520" height="26" as="geometry" />
        </mxCell>
        <mxCell id="4OkeyMGWRKXnlzKa9JUR-40" value="+Modify():void&#xa;" style="text;strokeColor=none;fillColor=none;align=left;verticalAlign=top;spacingLeft=4;spacingRight=4;overflow=hidden;rotatable=0;points=[[0,0.5],[1,0.5]];portConstraint=eastwest;" parent="4OkeyMGWRKXnlzKa9JUR-34" vertex="1">
          <mxGeometry y="156" width="520" height="26" as="geometry" />
        </mxCell>
        <mxCell id="4OkeyMGWRKXnlzKa9JUR-41" value="+ChongJian(LastBody:Nfeature*&gt;:void&#xa;" style="text;strokeColor=none;fillColor=none;align=left;verticalAlign=top;spacingLeft=4;spacingRight=4;overflow=hidden;rotatable=0;points=[[0,0.5],[1,0.5]];portConstraint=eastwest;" parent="4OkeyMGWRKXnlzKa9JUR-34" vertex="1">
          <mxGeometry y="182" width="520" height="28" as="geometry" />
        </mxCell>
        <mxCell id="4OkeyMGWRKXnlzKa9JUR-43" value="NbenchmarkAxis" style="swimlane;fontStyle=1;align=center;verticalAlign=top;childLayout=stackLayout;horizontal=1;startSize=26;horizontalStack=0;resizeParent=1;resizeParentMax=0;resizeLast=0;collapsible=1;marginBottom=0;" parent="1" vertex="1">
          <mxGeometry x="1590" y="-40" width="520" height="210" as="geometry" />
        </mxCell>
        <mxCell id="4OkeyMGWRKXnlzKa9JUR-44" value="+_count:int" style="text;strokeColor=none;fillColor=none;align=left;verticalAlign=top;spacingLeft=4;spacingRight=4;overflow=hidden;rotatable=0;points=[[0,0.5],[1,0.5]];portConstraint=eastwest;" parent="4OkeyMGWRKXnlzKa9JUR-43" vertex="1">
          <mxGeometry y="26" width="520" height="24" as="geometry" />
        </mxCell>
        <mxCell id="4OkeyMGWRKXnlzKa9JUR-45" value="" style="line;strokeWidth=1;fillColor=none;align=left;verticalAlign=middle;spacingTop=-1;spacingLeft=3;spacingRight=3;rotatable=0;labelPosition=right;points=[];portConstraint=eastwest;strokeColor=inherit;" parent="4OkeyMGWRKXnlzKa9JUR-43" vertex="1">
          <mxGeometry y="50" width="520" height="8" as="geometry" />
        </mxCell>
        <mxCell id="4OkeyMGWRKXnlzKa9JUR-46" value="+NbenchmarkAxis(mybigtype:featureBigType, type:NfeaytureType,myLabel:const TDF_Label&amp;,&#xa;isDp:int, dpinfo:vector&lt;double&gt;&amp;,lastbody:Nfeature*,std::vector&lt;std::string&gt;&amp; refernames)" style="text;strokeColor=none;fillColor=none;align=left;verticalAlign=top;spacingLeft=4;spacingRight=4;overflow=hidden;rotatable=0;points=[[0,0.5],[1,0.5]];portConstraint=eastwest;" parent="4OkeyMGWRKXnlzKa9JUR-43" vertex="1">
          <mxGeometry y="58" width="520" height="42" as="geometry" />
        </mxCell>
        <mxCell id="4OkeyMGWRKXnlzKa9JUR-47" value="+NbenchmarkAxis(mybigtype:eatureBigType, type:NfeaytureType,myLabel:const TDF_Label&amp;)" style="text;strokeColor=none;fillColor=none;align=left;verticalAlign=top;spacingLeft=4;spacingRight=4;overflow=hidden;rotatable=0;points=[[0,0.5],[1,0.5]];portConstraint=eastwest;" parent="4OkeyMGWRKXnlzKa9JUR-43" vertex="1">
          <mxGeometry y="100" width="520" height="30" as="geometry" />
        </mxCell>
        <mxCell id="4OkeyMGWRKXnlzKa9JUR-48" value="+Builder(IsModify: bool): void" style="text;strokeColor=none;fillColor=none;align=left;verticalAlign=top;spacingLeft=4;spacingRight=4;overflow=hidden;rotatable=0;points=[[0,0.5],[1,0.5]];portConstraint=eastwest;" parent="4OkeyMGWRKXnlzKa9JUR-43" vertex="1">
          <mxGeometry y="130" width="520" height="26" as="geometry" />
        </mxCell>
        <mxCell id="4OkeyMGWRKXnlzKa9JUR-49" value="+Modify():void&#xa;" style="text;strokeColor=none;fillColor=none;align=left;verticalAlign=top;spacingLeft=4;spacingRight=4;overflow=hidden;rotatable=0;points=[[0,0.5],[1,0.5]];portConstraint=eastwest;" parent="4OkeyMGWRKXnlzKa9JUR-43" vertex="1">
          <mxGeometry y="156" width="520" height="26" as="geometry" />
        </mxCell>
        <mxCell id="4OkeyMGWRKXnlzKa9JUR-50" value="+ChongJian(LastBody:Nfeature*&gt;:void&#xa;" style="text;strokeColor=none;fillColor=none;align=left;verticalAlign=top;spacingLeft=4;spacingRight=4;overflow=hidden;rotatable=0;points=[[0,0.5],[1,0.5]];portConstraint=eastwest;" parent="4OkeyMGWRKXnlzKa9JUR-43" vertex="1">
          <mxGeometry y="182" width="520" height="28" as="geometry" />
        </mxCell>
        <mxCell id="4OkeyMGWRKXnlzKa9JUR-52" value="NbenchmarkPlane" style="swimlane;fontStyle=1;align=center;verticalAlign=top;childLayout=stackLayout;horizontal=1;startSize=26;horizontalStack=0;resizeParent=1;resizeParentMax=0;resizeLast=0;collapsible=1;marginBottom=0;" parent="1" vertex="1">
          <mxGeometry x="1580" y="310" width="520" height="210" as="geometry" />
        </mxCell>
        <mxCell id="4OkeyMGWRKXnlzKa9JUR-53" value="+_count:int" style="text;strokeColor=none;fillColor=none;align=left;verticalAlign=top;spacingLeft=4;spacingRight=4;overflow=hidden;rotatable=0;points=[[0,0.5],[1,0.5]];portConstraint=eastwest;" parent="4OkeyMGWRKXnlzKa9JUR-52" vertex="1">
          <mxGeometry y="26" width="520" height="24" as="geometry" />
        </mxCell>
        <mxCell id="4OkeyMGWRKXnlzKa9JUR-54" value="" style="line;strokeWidth=1;fillColor=none;align=left;verticalAlign=middle;spacingTop=-1;spacingLeft=3;spacingRight=3;rotatable=0;labelPosition=right;points=[];portConstraint=eastwest;strokeColor=inherit;" parent="4OkeyMGWRKXnlzKa9JUR-52" vertex="1">
          <mxGeometry y="50" width="520" height="8" as="geometry" />
        </mxCell>
        <mxCell id="4OkeyMGWRKXnlzKa9JUR-55" value="+NbenchmarkPlane(mybigtype:featureBigType, type:NfeaytureType,myLabel:const TDF_Label&amp;,&#xa;isDp:int, dpinfo:vector&lt;double&gt;&amp;,lastbody:Nfeature*,std::vector&lt;std::string&gt;&amp; refernames)" style="text;strokeColor=none;fillColor=none;align=left;verticalAlign=top;spacingLeft=4;spacingRight=4;overflow=hidden;rotatable=0;points=[[0,0.5],[1,0.5]];portConstraint=eastwest;" parent="4OkeyMGWRKXnlzKa9JUR-52" vertex="1">
          <mxGeometry y="58" width="520" height="42" as="geometry" />
        </mxCell>
        <mxCell id="4OkeyMGWRKXnlzKa9JUR-56" value="+NbenchmarkPlane(mybigtype:eatureBigType, type:NfeaytureType,myLabel:const TDF_Label&amp;)" style="text;strokeColor=none;fillColor=none;align=left;verticalAlign=top;spacingLeft=4;spacingRight=4;overflow=hidden;rotatable=0;points=[[0,0.5],[1,0.5]];portConstraint=eastwest;" parent="4OkeyMGWRKXnlzKa9JUR-52" vertex="1">
          <mxGeometry y="100" width="520" height="30" as="geometry" />
        </mxCell>
        <mxCell id="4OkeyMGWRKXnlzKa9JUR-57" value="+Builder(IsModify: bool): void" style="text;strokeColor=none;fillColor=none;align=left;verticalAlign=top;spacingLeft=4;spacingRight=4;overflow=hidden;rotatable=0;points=[[0,0.5],[1,0.5]];portConstraint=eastwest;" parent="4OkeyMGWRKXnlzKa9JUR-52" vertex="1">
          <mxGeometry y="130" width="520" height="26" as="geometry" />
        </mxCell>
        <mxCell id="4OkeyMGWRKXnlzKa9JUR-58" value="+Modify():void&#xa;" style="text;strokeColor=none;fillColor=none;align=left;verticalAlign=top;spacingLeft=4;spacingRight=4;overflow=hidden;rotatable=0;points=[[0,0.5],[1,0.5]];portConstraint=eastwest;" parent="4OkeyMGWRKXnlzKa9JUR-52" vertex="1">
          <mxGeometry y="156" width="520" height="26" as="geometry" />
        </mxCell>
        <mxCell id="4OkeyMGWRKXnlzKa9JUR-59" value="+ChongJian(LastBody:Nfeature*&gt;:void&#xa;" style="text;strokeColor=none;fillColor=none;align=left;verticalAlign=top;spacingLeft=4;spacingRight=4;overflow=hidden;rotatable=0;points=[[0,0.5],[1,0.5]];portConstraint=eastwest;" parent="4OkeyMGWRKXnlzKa9JUR-52" vertex="1">
          <mxGeometry y="182" width="520" height="28" as="geometry" />
        </mxCell>
        <mxCell id="4OkeyMGWRKXnlzKa9JUR-61" value="NbenchmarkFace" style="swimlane;fontStyle=1;align=center;verticalAlign=top;childLayout=stackLayout;horizontal=1;startSize=26;horizontalStack=0;resizeParent=1;resizeParentMax=0;resizeLast=0;collapsible=1;marginBottom=0;" parent="1" vertex="1">
          <mxGeometry x="1570" y="670" width="520" height="392" as="geometry" />
        </mxCell>
        <mxCell id="4OkeyMGWRKXnlzKa9JUR-62" value="+_count:int" style="text;strokeColor=none;fillColor=none;align=left;verticalAlign=top;spacingLeft=4;spacingRight=4;overflow=hidden;rotatable=0;points=[[0,0.5],[1,0.5]];portConstraint=eastwest;" parent="4OkeyMGWRKXnlzKa9JUR-61" vertex="1">
          <mxGeometry y="26" width="520" height="24" as="geometry" />
        </mxCell>
        <mxCell id="4OkeyMGWRKXnlzKa9JUR-69" value="-CurSketcher:Sketcher*" style="text;strokeColor=none;fillColor=none;align=left;verticalAlign=top;spacingLeft=4;spacingRight=4;overflow=hidden;rotatable=0;points=[[0,0.5],[1,0.5]];portConstraint=eastwest;" parent="4OkeyMGWRKXnlzKa9JUR-61" vertex="1">
          <mxGeometry y="50" width="520" height="26" as="geometry" />
        </mxCell>
        <mxCell id="4OkeyMGWRKXnlzKa9JUR-63" value="" style="line;strokeWidth=1;fillColor=none;align=left;verticalAlign=middle;spacingTop=-1;spacingLeft=3;spacingRight=3;rotatable=0;labelPosition=right;points=[];portConstraint=eastwest;strokeColor=inherit;" parent="4OkeyMGWRKXnlzKa9JUR-61" vertex="1">
          <mxGeometry y="76" width="520" height="8" as="geometry" />
        </mxCell>
        <mxCell id="4OkeyMGWRKXnlzKa9JUR-64" value="+NbenchmarkFace(mybigtype:featureBigType, type:NfeaytureType,myLabel:const TDF_Label&amp;,&#xa;isDp:int,lastbody:Nfeature*,std::vector&lt;std::string&gt;&amp; refernames)" style="text;strokeColor=none;fillColor=none;align=left;verticalAlign=top;spacingLeft=4;spacingRight=4;overflow=hidden;rotatable=0;points=[[0,0.5],[1,0.5]];portConstraint=eastwest;" parent="4OkeyMGWRKXnlzKa9JUR-61" vertex="1">
          <mxGeometry y="84" width="520" height="42" as="geometry" />
        </mxCell>
        <mxCell id="4OkeyMGWRKXnlzKa9JUR-65" value="+NbenchmarkFace(mybigtype:eatureBigType, type:NfeaytureType,myLabel:const TDF_Label&amp;)" style="text;strokeColor=none;fillColor=none;align=left;verticalAlign=top;spacingLeft=4;spacingRight=4;overflow=hidden;rotatable=0;points=[[0,0.5],[1,0.5]];portConstraint=eastwest;" parent="4OkeyMGWRKXnlzKa9JUR-61" vertex="1">
          <mxGeometry y="126" width="520" height="30" as="geometry" />
        </mxCell>
        <mxCell id="4OkeyMGWRKXnlzKa9JUR-66" value="+Builder(IsModify: bool): void" style="text;strokeColor=none;fillColor=none;align=left;verticalAlign=top;spacingLeft=4;spacingRight=4;overflow=hidden;rotatable=0;points=[[0,0.5],[1,0.5]];portConstraint=eastwest;" parent="4OkeyMGWRKXnlzKa9JUR-61" vertex="1">
          <mxGeometry y="156" width="520" height="26" as="geometry" />
        </mxCell>
        <mxCell id="4OkeyMGWRKXnlzKa9JUR-67" value="+Modify():void&#xa;" style="text;strokeColor=none;fillColor=none;align=left;verticalAlign=top;spacingLeft=4;spacingRight=4;overflow=hidden;rotatable=0;points=[[0,0.5],[1,0.5]];portConstraint=eastwest;" parent="4OkeyMGWRKXnlzKa9JUR-61" vertex="1">
          <mxGeometry y="182" width="520" height="26" as="geometry" />
        </mxCell>
        <mxCell id="4OkeyMGWRKXnlzKa9JUR-72" value="+GetInputValue():int" style="text;strokeColor=none;fillColor=none;align=left;verticalAlign=top;spacingLeft=4;spacingRight=4;overflow=hidden;rotatable=0;points=[[0,0.5],[1,0.5]];portConstraint=eastwest;" parent="4OkeyMGWRKXnlzKa9JUR-61" vertex="1">
          <mxGeometry y="208" width="520" height="26" as="geometry" />
        </mxCell>
        <mxCell id="4OkeyMGWRKXnlzKa9JUR-71" value="+SetInputValue(i:int):void" style="text;strokeColor=none;fillColor=none;align=left;verticalAlign=top;spacingLeft=4;spacingRight=4;overflow=hidden;rotatable=0;points=[[0,0.5],[1,0.5]];portConstraint=eastwest;" parent="4OkeyMGWRKXnlzKa9JUR-61" vertex="1">
          <mxGeometry y="234" width="520" height="26" as="geometry" />
        </mxCell>
        <mxCell id="4OkeyMGWRKXnlzKa9JUR-70" value="+GetCurSketcher()const:Sketcher*" style="text;strokeColor=none;fillColor=none;align=left;verticalAlign=top;spacingLeft=4;spacingRight=4;overflow=hidden;rotatable=0;points=[[0,0.5],[1,0.5]];portConstraint=eastwest;" parent="4OkeyMGWRKXnlzKa9JUR-61" vertex="1">
          <mxGeometry y="260" width="520" height="26" as="geometry" />
        </mxCell>
        <mxCell id="4OkeyMGWRKXnlzKa9JUR-68" value="+SetCurSktcher(skt:Sketcher*):void" style="text;strokeColor=none;fillColor=none;align=left;verticalAlign=top;spacingLeft=4;spacingRight=4;overflow=hidden;rotatable=0;points=[[0,0.5],[1,0.5]];portConstraint=eastwest;" parent="4OkeyMGWRKXnlzKa9JUR-61" vertex="1">
          <mxGeometry y="286" width="520" height="28" as="geometry" />
        </mxCell>
        <mxCell id="4OkeyMGWRKXnlzKa9JUR-75" value="+GetFace():TopoDS_Face" style="text;strokeColor=none;fillColor=none;align=left;verticalAlign=top;spacingLeft=4;spacingRight=4;overflow=hidden;rotatable=0;points=[[0,0.5],[1,0.5]];portConstraint=eastwest;" parent="4OkeyMGWRKXnlzKa9JUR-61" vertex="1">
          <mxGeometry y="314" width="520" height="26" as="geometry" />
        </mxCell>
        <mxCell id="4OkeyMGWRKXnlzKa9JUR-74" value="+GetWire():TopoDS_Wire" style="text;strokeColor=none;fillColor=none;align=left;verticalAlign=top;spacingLeft=4;spacingRight=4;overflow=hidden;rotatable=0;points=[[0,0.5],[1,0.5]];portConstraint=eastwest;" parent="4OkeyMGWRKXnlzKa9JUR-61" vertex="1">
          <mxGeometry y="340" width="520" height="26" as="geometry" />
        </mxCell>
        <mxCell id="4OkeyMGWRKXnlzKa9JUR-73" value="+GetNameByShapeOfSketcher(sketcherElemnet:const TopoDS_Shape&amp;):string" style="text;strokeColor=none;fillColor=none;align=left;verticalAlign=top;spacingLeft=4;spacingRight=4;overflow=hidden;rotatable=0;points=[[0,0.5],[1,0.5]];portConstraint=eastwest;" parent="4OkeyMGWRKXnlzKa9JUR-61" vertex="1">
          <mxGeometry y="366" width="520" height="26" as="geometry" />
        </mxCell>
        <mxCell id="4OkeyMGWRKXnlzKa9JUR-77" value="Extends" style="endArrow=block;endSize=16;endFill=0;html=1;rounded=0;exitX=-0.005;exitY=0.057;exitDx=0;exitDy=0;exitPerimeter=0;entryX=1.006;entryY=0.164;entryDx=0;entryDy=0;entryPerimeter=0;" parent="1" source="4OkeyMGWRKXnlzKa9JUR-61" target="ykWLb0IThOWZlfe0dgKn-28" edge="1">
          <mxGeometry width="160" relative="1" as="geometry">
            <mxPoint x="770" y="560" as="sourcePoint" />
            <mxPoint x="900" y="580" as="targetPoint" />
          </mxGeometry>
        </mxCell>
        <mxCell id="4OkeyMGWRKXnlzKa9JUR-90" value="NmirroredFeature" style="swimlane;fontStyle=1;align=center;verticalAlign=top;childLayout=stackLayout;horizontal=1;startSize=26;horizontalStack=0;resizeParent=1;resizeParentMax=0;resizeLast=0;collapsible=1;marginBottom=0;" parent="1" vertex="1">
          <mxGeometry x="-1450" y="-220" width="520" height="236" as="geometry" />
        </mxCell>
        <mxCell id="4OkeyMGWRKXnlzKa9JUR-91" value="+_count:int" style="text;strokeColor=none;fillColor=none;align=left;verticalAlign=top;spacingLeft=4;spacingRight=4;overflow=hidden;rotatable=0;points=[[0,0.5],[1,0.5]];portConstraint=eastwest;" parent="4OkeyMGWRKXnlzKa9JUR-90" vertex="1">
          <mxGeometry y="26" width="520" height="24" as="geometry" />
        </mxCell>
        <mxCell id="4OkeyMGWRKXnlzKa9JUR-92" value="" style="line;strokeWidth=1;fillColor=none;align=left;verticalAlign=middle;spacingTop=-1;spacingLeft=3;spacingRight=3;rotatable=0;labelPosition=right;points=[];portConstraint=eastwest;strokeColor=inherit;" parent="4OkeyMGWRKXnlzKa9JUR-90" vertex="1">
          <mxGeometry y="50" width="520" height="8" as="geometry" />
        </mxCell>
        <mxCell id="4OkeyMGWRKXnlzKa9JUR-93" value="+NmirroredFeature(mybigtype:featureBigType, type:NfeaytureType,myLabel:const TDF_Label&amp;,&#xa;nf:vector&lt;Nfeature*&gt;,PlnType:int,refername:const string&amp;)" style="text;strokeColor=none;fillColor=none;align=left;verticalAlign=top;spacingLeft=4;spacingRight=4;overflow=hidden;rotatable=0;points=[[0,0.5],[1,0.5]];portConstraint=eastwest;" parent="4OkeyMGWRKXnlzKa9JUR-90" vertex="1">
          <mxGeometry y="58" width="520" height="42" as="geometry" />
        </mxCell>
        <mxCell id="4OkeyMGWRKXnlzKa9JUR-94" value="+NmirroredFeature(mybigtype:eatureBigType, type:NfeaytureType,myLabel:const TDF_Label&amp;)" style="text;strokeColor=none;fillColor=none;align=left;verticalAlign=top;spacingLeft=4;spacingRight=4;overflow=hidden;rotatable=0;points=[[0,0.5],[1,0.5]];portConstraint=eastwest;" parent="4OkeyMGWRKXnlzKa9JUR-90" vertex="1">
          <mxGeometry y="100" width="520" height="30" as="geometry" />
        </mxCell>
        <mxCell id="4OkeyMGWRKXnlzKa9JUR-95" value="+Builder(IsModify: bool): void" style="text;strokeColor=none;fillColor=none;align=left;verticalAlign=top;spacingLeft=4;spacingRight=4;overflow=hidden;rotatable=0;points=[[0,0.5],[1,0.5]];portConstraint=eastwest;" parent="4OkeyMGWRKXnlzKa9JUR-90" vertex="1">
          <mxGeometry y="130" width="520" height="26" as="geometry" />
        </mxCell>
        <mxCell id="4OkeyMGWRKXnlzKa9JUR-96" value="+Modify():void&#xa;" style="text;strokeColor=none;fillColor=none;align=left;verticalAlign=top;spacingLeft=4;spacingRight=4;overflow=hidden;rotatable=0;points=[[0,0.5],[1,0.5]];portConstraint=eastwest;" parent="4OkeyMGWRKXnlzKa9JUR-90" vertex="1">
          <mxGeometry y="156" width="520" height="26" as="geometry" />
        </mxCell>
        <mxCell id="4OkeyMGWRKXnlzKa9JUR-97" value="+ChongJian(LastBody:Nfeature*&gt;:void&#xa;" style="text;strokeColor=none;fillColor=none;align=left;verticalAlign=top;spacingLeft=4;spacingRight=4;overflow=hidden;rotatable=0;points=[[0,0.5],[1,0.5]];portConstraint=eastwest;" parent="4OkeyMGWRKXnlzKa9JUR-90" vertex="1">
          <mxGeometry y="182" width="520" height="28" as="geometry" />
        </mxCell>
        <mxCell id="4OkeyMGWRKXnlzKa9JUR-98" value="+SetData(nf:vector&lt;Nfeature*&gt;,PlnType:int,refername:const string&amp;):void" style="text;strokeColor=none;fillColor=none;align=left;verticalAlign=top;spacingLeft=4;spacingRight=4;overflow=hidden;rotatable=0;points=[[0,0.5],[1,0.5]];portConstraint=eastwest;" parent="4OkeyMGWRKXnlzKa9JUR-90" vertex="1">
          <mxGeometry y="210" width="520" height="26" as="geometry" />
        </mxCell>
        <mxCell id="4OkeyMGWRKXnlzKa9JUR-99" value="NlinearPatternFeature" style="swimlane;fontStyle=1;align=center;verticalAlign=top;childLayout=stackLayout;horizontal=1;startSize=26;horizontalStack=0;resizeParent=1;resizeParentMax=0;resizeLast=0;collapsible=1;marginBottom=0;" parent="1" vertex="1">
          <mxGeometry x="-1440" y="160" width="550" height="240" as="geometry" />
        </mxCell>
        <mxCell id="4OkeyMGWRKXnlzKa9JUR-100" value="+_count:int" style="text;strokeColor=none;fillColor=none;align=left;verticalAlign=top;spacingLeft=4;spacingRight=4;overflow=hidden;rotatable=0;points=[[0,0.5],[1,0.5]];portConstraint=eastwest;" parent="4OkeyMGWRKXnlzKa9JUR-99" vertex="1">
          <mxGeometry y="26" width="550" height="24" as="geometry" />
        </mxCell>
        <mxCell id="4OkeyMGWRKXnlzKa9JUR-101" value="" style="line;strokeWidth=1;fillColor=none;align=left;verticalAlign=middle;spacingTop=-1;spacingLeft=3;spacingRight=3;rotatable=0;labelPosition=right;points=[];portConstraint=eastwest;strokeColor=inherit;" parent="4OkeyMGWRKXnlzKa9JUR-99" vertex="1">
          <mxGeometry y="50" width="550" height="8" as="geometry" />
        </mxCell>
        <mxCell id="4OkeyMGWRKXnlzKa9JUR-102" value="+NlinearPatternFeature(mybigtype:featureBigType, type:NfeaytureType,myLabel:const TDF_Label&amp;,&#xa;nf:vector&lt;Nfeature*&gt;,number:int,length:double,PlnType:int,refername:const string&amp;)" style="text;strokeColor=none;fillColor=none;align=left;verticalAlign=top;spacingLeft=4;spacingRight=4;overflow=hidden;rotatable=0;points=[[0,0.5],[1,0.5]];portConstraint=eastwest;" parent="4OkeyMGWRKXnlzKa9JUR-99" vertex="1">
          <mxGeometry y="58" width="550" height="42" as="geometry" />
        </mxCell>
        <mxCell id="4OkeyMGWRKXnlzKa9JUR-103" value="+NlinearPatternFeature(mybigtype:eatureBigType, type:NfeaytureType,myLabel:const TDF_Label&amp;)" style="text;strokeColor=none;fillColor=none;align=left;verticalAlign=top;spacingLeft=4;spacingRight=4;overflow=hidden;rotatable=0;points=[[0,0.5],[1,0.5]];portConstraint=eastwest;" parent="4OkeyMGWRKXnlzKa9JUR-99" vertex="1">
          <mxGeometry y="100" width="550" height="30" as="geometry" />
        </mxCell>
        <mxCell id="4OkeyMGWRKXnlzKa9JUR-104" value="+Builder(IsModify: bool): void" style="text;strokeColor=none;fillColor=none;align=left;verticalAlign=top;spacingLeft=4;spacingRight=4;overflow=hidden;rotatable=0;points=[[0,0.5],[1,0.5]];portConstraint=eastwest;" parent="4OkeyMGWRKXnlzKa9JUR-99" vertex="1">
          <mxGeometry y="130" width="550" height="26" as="geometry" />
        </mxCell>
        <mxCell id="4OkeyMGWRKXnlzKa9JUR-105" value="+Modify():void&#xa;" style="text;strokeColor=none;fillColor=none;align=left;verticalAlign=top;spacingLeft=4;spacingRight=4;overflow=hidden;rotatable=0;points=[[0,0.5],[1,0.5]];portConstraint=eastwest;" parent="4OkeyMGWRKXnlzKa9JUR-99" vertex="1">
          <mxGeometry y="156" width="550" height="26" as="geometry" />
        </mxCell>
        <mxCell id="4OkeyMGWRKXnlzKa9JUR-106" value="+ChongJian(LastBody:Nfeature*&gt;:void&#xa;" style="text;strokeColor=none;fillColor=none;align=left;verticalAlign=top;spacingLeft=4;spacingRight=4;overflow=hidden;rotatable=0;points=[[0,0.5],[1,0.5]];portConstraint=eastwest;" parent="4OkeyMGWRKXnlzKa9JUR-99" vertex="1">
          <mxGeometry y="182" width="550" height="28" as="geometry" />
        </mxCell>
        <mxCell id="4OkeyMGWRKXnlzKa9JUR-107" value="+SetData(nf:vector&lt;Nfeature*&gt;,number:int,length:double,PlnType:int,refername:const string&amp;):void" style="text;strokeColor=none;fillColor=none;align=left;verticalAlign=top;spacingLeft=4;spacingRight=4;overflow=hidden;rotatable=0;points=[[0,0.5],[1,0.5]];portConstraint=eastwest;" parent="4OkeyMGWRKXnlzKa9JUR-99" vertex="1">
          <mxGeometry y="210" width="550" height="30" as="geometry" />
        </mxCell>
        <mxCell id="4OkeyMGWRKXnlzKa9JUR-108" value="NpolarPatternFeature" style="swimlane;fontStyle=1;align=center;verticalAlign=top;childLayout=stackLayout;horizontal=1;startSize=26;horizontalStack=0;resizeParent=1;resizeParentMax=0;resizeLast=0;collapsible=1;marginBottom=0;" parent="1" vertex="1">
          <mxGeometry x="-1450" y="487" width="550" height="240" as="geometry" />
        </mxCell>
        <mxCell id="4OkeyMGWRKXnlzKa9JUR-109" value="+_count:int" style="text;strokeColor=none;fillColor=none;align=left;verticalAlign=top;spacingLeft=4;spacingRight=4;overflow=hidden;rotatable=0;points=[[0,0.5],[1,0.5]];portConstraint=eastwest;" parent="4OkeyMGWRKXnlzKa9JUR-108" vertex="1">
          <mxGeometry y="26" width="550" height="24" as="geometry" />
        </mxCell>
        <mxCell id="4OkeyMGWRKXnlzKa9JUR-110" value="" style="line;strokeWidth=1;fillColor=none;align=left;verticalAlign=middle;spacingTop=-1;spacingLeft=3;spacingRight=3;rotatable=0;labelPosition=right;points=[];portConstraint=eastwest;strokeColor=inherit;" parent="4OkeyMGWRKXnlzKa9JUR-108" vertex="1">
          <mxGeometry y="50" width="550" height="8" as="geometry" />
        </mxCell>
        <mxCell id="4OkeyMGWRKXnlzKa9JUR-111" value="+NpolarPatternFeature(mybigtype:featureBigType, type:NfeaytureType,myLabel:const TDF_Label&amp;,&#xa;nf:vector&lt;Nfeature*&gt;,number:int,angle:double,PlnType:int,refername:const string&amp;)" style="text;strokeColor=none;fillColor=none;align=left;verticalAlign=top;spacingLeft=4;spacingRight=4;overflow=hidden;rotatable=0;points=[[0,0.5],[1,0.5]];portConstraint=eastwest;" parent="4OkeyMGWRKXnlzKa9JUR-108" vertex="1">
          <mxGeometry y="58" width="550" height="42" as="geometry" />
        </mxCell>
        <mxCell id="4OkeyMGWRKXnlzKa9JUR-112" value="+NpolarPatternFeature(mybigtype:eatureBigType, type:NfeaytureType,myLabel:const TDF_Label&amp;)" style="text;strokeColor=none;fillColor=none;align=left;verticalAlign=top;spacingLeft=4;spacingRight=4;overflow=hidden;rotatable=0;points=[[0,0.5],[1,0.5]];portConstraint=eastwest;" parent="4OkeyMGWRKXnlzKa9JUR-108" vertex="1">
          <mxGeometry y="100" width="550" height="30" as="geometry" />
        </mxCell>
        <mxCell id="4OkeyMGWRKXnlzKa9JUR-113" value="+Builder(IsModify: bool): void" style="text;strokeColor=none;fillColor=none;align=left;verticalAlign=top;spacingLeft=4;spacingRight=4;overflow=hidden;rotatable=0;points=[[0,0.5],[1,0.5]];portConstraint=eastwest;" parent="4OkeyMGWRKXnlzKa9JUR-108" vertex="1">
          <mxGeometry y="130" width="550" height="26" as="geometry" />
        </mxCell>
        <mxCell id="4OkeyMGWRKXnlzKa9JUR-114" value="+Modify():void&#xa;" style="text;strokeColor=none;fillColor=none;align=left;verticalAlign=top;spacingLeft=4;spacingRight=4;overflow=hidden;rotatable=0;points=[[0,0.5],[1,0.5]];portConstraint=eastwest;" parent="4OkeyMGWRKXnlzKa9JUR-108" vertex="1">
          <mxGeometry y="156" width="550" height="26" as="geometry" />
        </mxCell>
        <mxCell id="4OkeyMGWRKXnlzKa9JUR-115" value="+ChongJian(LastBody:Nfeature*&gt;:void&#xa;" style="text;strokeColor=none;fillColor=none;align=left;verticalAlign=top;spacingLeft=4;spacingRight=4;overflow=hidden;rotatable=0;points=[[0,0.5],[1,0.5]];portConstraint=eastwest;" parent="4OkeyMGWRKXnlzKa9JUR-108" vertex="1">
          <mxGeometry y="182" width="550" height="28" as="geometry" />
        </mxCell>
        <mxCell id="4OkeyMGWRKXnlzKa9JUR-116" value="+SetData(nf:vector&lt;Nfeature*&gt;,number:int,angle:double,AxisType:int,refername:const string&amp;):void" style="text;strokeColor=none;fillColor=none;align=left;verticalAlign=top;spacingLeft=4;spacingRight=4;overflow=hidden;rotatable=0;points=[[0,0.5],[1,0.5]];portConstraint=eastwest;" parent="4OkeyMGWRKXnlzKa9JUR-108" vertex="1">
          <mxGeometry y="210" width="550" height="30" as="geometry" />
        </mxCell>
        <mxCell id="4OkeyMGWRKXnlzKa9JUR-117" value="Extends" style="endArrow=block;endSize=16;endFill=0;html=1;rounded=0;entryX=0;entryY=0.5;entryDx=0;entryDy=0;exitX=1;exitY=0.5;exitDx=0;exitDy=0;" parent="1" source="4OkeyMGWRKXnlzKa9JUR-95" target="ykWLb0IThOWZlfe0dgKn-260" edge="1">
          <mxGeometry width="160" relative="1" as="geometry">
            <mxPoint x="-940" y="80" as="sourcePoint" />
            <mxPoint x="-780" y="80" as="targetPoint" />
          </mxGeometry>
        </mxCell>
      </root>
    </mxGraphModel>
  </diagram>
</mxfile>
